{
  "accessors": [
    {
      "bufferView": 2,
      "componentType": 5126,
      "count": 2360,
      "max": [
        34.05379867553711,
        -81.38819885253906,
        6.195950031280518
      ],
      "min": [
        33.304298400878906,
        -94.99980163574219,
        2.3841900542720396e-07
      ],
      "type": "VEC3"
    },
    {
      "bufferView": 2,
      "byteOffset": 28320,
      "componentType": 5126,
      "count": 2360,
      "max": [
        1.0,
        1.0,
        1.0
      ],
      "min": [
        -1.0,
        -1.0,
        -1.0
      ],
      "type": "VEC3"
    },
    {
      "bufferView": 1,
      "componentType": 5126,
      "count": 2360,
      "max": [
        4.388879776000977,
        7.732639789581299
      ],
      "min": [
        -4.679649829864502,
        -6.903860092163086
      ],
      "type": "VEC2"
    },
    {
      "bufferView": 0,
      "componentType": 5125,
      "count": 5940,
      "type": "SCALAR"
    },
    {
      "bufferView": 2,
      "byteOffset": 56640,
      "componentType": 5126,
      "count": 96,
      "max": [
        37.75870132446289,
        -75.58879852294922,
        3.824579954147339
      ],
      "min": [
        34.048099517822266,
        -94.1449966430664,
        3.230710029602051
      ],
      "type": "VEC3"
    },
    {
      "bufferView": 2,
      "byteOffset": 57792,
      "componentType": 5126,
      "count": 96,
      "max": [
        1.0,
        1.0,
        1.0
      ],
      "min": [
        -1.0,
        -1.0,
        -1.0
      ],
      "type": "VEC3"
    },
    {
      "bufferView": 1,
      "byteOffset": 18880,
      "componentType": 5126,
      "count": 96,
      "max": [
        5.532080173492432,
        1.7536200284957886
      ],
      "min": [
        -0.11464899778366089,
        0.46277299523353577
      ],
      "type": "VEC2"
    },
    {
      "bufferView": 0,
      "byteOffset": 23760,
      "componentType": 5125,
      "count": 144,
      "type": "SCALAR"
    },
    {
      "bufferView": 2,
      "byteOffset": 58944,
      "componentType": 5126,
      "count": 240,
      "max": [
        33.713199615478516,
        -81.69889831542969,
        5.826690196990967
      ],
      "min": [
        33.63560104370117,
        -94.6884994506836,
        4.715169906616211
      ],
      "type": "VEC3"
    },
    {
      "bufferView": 2,
      "byteOffset": 61824,
      "componentType": 5126,
      "count": 240,
      "max": [
        -0.9249000549316406,
        0.3762306869029999,
        0.3762306869029999
      ],
      "min": [
        -0.9999380111694336,
        -0.3762306869029999,
        -0.36910760402679443
      ],
      "type": "VEC3"
    },
    {
      "bufferView": 1,
      "byteOffset": 19648,
      "componentType": 5126,
      "count": 240,
      "max": [
        1.6165499687194824,
        1.9662799835205078
      ],
      "min": [
        -0.8405870199203491,
        -0.35430699586868286
      ],
      "type": "VEC2"
    },
    {
      "bufferView": 0,
      "byteOffset": 24336,
      "componentType": 5125,
      "count": 1170,
      "type": "SCALAR"
    }
  ],
  "asset": {
    "extras": {
      "author": "formula models maker (https://sketchfab.com/damianrovra379)",
      "license": "CC-BY-4.0 (http://creativecommons.org/licenses/by/4.0/)",
      "source": "https://sketchfab.com/3d-models/race-track-props-starting-lights-4f3bd911404a4952bedc5c9aa5f5d9e3",
      "title": "Race Track Props: Starting Lights"
    },
    "generator": "Sketchfab-12.67.0",
    "version": "2.0"
  },
  "bufferViews": [
    {
      "buffer": 0,
      "byteLength": 29016,
      "name": "floatBufferViews",
      "target": 34963
    },
    {
      "buffer": 0,
      "byteLength": 21568,
      "byteOffset": 29016,
      "byteStride": 8,
      "name": "floatBufferViews",
      "target": 34962
    },
    {
      "buffer": 0,
      "byteLength": 64704,
      "byteOffset": 50584,
      "byteStride": 12,
      "name": "floatBufferViews",
      "target": 34962
    }
  ],
  "buffers": [
    {
      "byteLength": 115288,
      "uri": "scene.bin"
    }
  ],
  "materials": [
    {
      "doubleSided": true,
      "name": "Meshpart1Mtl",
      "pbrMetallicRoughness": {
        "baseColorFactor": [
          0.0,
          0.0,
          0.0,
          1.0
        ],
        "metallicFactor": 0.0,
        "roughnessFactor": 0.0
      }
    },
    {
      "doubleSided": true,
      "name": "Part1Mtl",
      "pbrMetallicRoughness": {
        "roughnessFactor": 0.0
      }
    },
    {
      "doubleSided": true,
      "name": "Redt21Mtl",
      "pbrMetallicRoughness": {
        "baseColorFactor": [
          0.0,
          0.0,
          0.0,
          1.0
        ],
        "metallicFactor": 0.0,
        "roughnessFactor": 0.0
      }
    }
  ],
  "meshes": [
    {
      "name": "Object_0",
      "primitives": [
        {
          "attributes": {
            "NORMAL": 1,
            "POSITION": 0,
            "TEXCOORD_0": 2
          },
          "indices": 3,
          "material": 0,
          "mode": 4
        }
      ]
    },
    {
      "name": "Object_1",
      "primitives": [
        {
          "attributes": {
            "NORMAL": 5,
            "POSITION": 4,
            "TEXCOORD_0": 6
          },
          "indices": 7,
          "material": 1,
          "mode": 4
        }
      ]
    },
    {
      "name": "Object_2",
      "primitives": [
        {
          "attributes": {
            "NORMAL": 9,
            "POSITION": 8,
            "TEXCOORD_0": 10
          },
          "indices": 11,
          "material": 2,
          "mode": 4
        }
      ]
    }
  ],
  "nodes": [
    {
      "children": [
        1
      ],
      "matrix": [
        1.0,
        0.0,
        0.0,
        0.0,
        0.0,
        2.220446049250313e-16,
        -1.0,
        0.0,
        0.0,
        1.0,
        2.220446049250313e-16,
        0.0,
        0.0,
        0.0,
        0.0,
        1.0
      ],
      "name": "Sketchfab_model"
    },
    {
      "children": [
        2,
        3,
        4
      ],
      "name": "1bb74bd5cbd84a61857405a5a695dd3e.obj.cleaner.materialmerger.gles"
    },
    {
      "mesh": 0,
      "name": "Object_2"
    },
    {
      "mesh": 1,
      "name": "Object_3"
    },
    {
      "mesh": 2,
      "name": "Object_4"
    }
  ],
  "scene": 0,
  "scenes": [
    {
      "name": "Sketchfab_Scene",
      "nodes": [
        0
      ]
    }
  ]
}
