v 0.0000 0.0000 0.0000
v 1.0000 0.0000 0.0000
v 0.8660 0.5000 0.0000
v 0.5000 0.8660 0.0000
v 0.0000 1.0000 0.0000
v -0.5000 0.8660 0.0000
v -0.8660 0.5000 0.0000
v -1.0000 0.0000 0.0000
v -0.8660 -0.5000 0.0000
v -0.5000 -0.8660 0.0000
v 0.0000 -1.0000 0.0000
v 0.5000 -0.8660 0.0000
v 0.8660 -0.5000 0.0000

vn 0.0 0.0 1.0

f 1//1 2//1 3//1
f 1//1 3//1 4//1
f 1//1 4//1 5//1
f 1//1 5//1 6//1
f 1//1 6//1 7//1
f 1//1 7//1 8//1
f 1//1 8//1 9//1
f 1//1 9//1 10//1
f 1//1 10//1 11//1
f 1//1 11//1 12//1
f 1//1 12//1 13//1
f 1//1 13//1 2//1