{
  "accessors": [
    {
      "bufferView": 2,
      "componentType": 5126,
      "count": 11128,
      "max": [
        0.6729432940483093,
        15.319424629211426,
        0.6729426980018616
      ],
      "min": [
        -0.6729431748390198,
        -2.1855694143368964e-08,
        -0.6729437708854675
      ],
      "type": "VEC3"
    },
    {
      "bufferView": 2,
      "byteOffset": 133536,
      "componentType": 5126,
      "count": 11128,
      "max": [
        1.0,
        1.0,
        1.0
      ],
      "min": [
        -1.0,
        -1.0,
        -1.0
      ],
      "type": "VEC3"
    },
    {
      "bufferView": 3,
      "componentType": 5126,
      "count": 11128,
      "max": [
        0.9999994039535522,
        1.0,
        0.9999994039535522,
        1.0
      ],
      "min": [
        -0.9999994039535522,
        -1.0,
        -0.9999994039535522,
        -1.0
      ],
      "type": "VEC4"
    },
    {
      "bufferView": 1,
      "componentType": 5126,
      "count": 11128,
      "max": [
        0.9411960244178772,
        0.9979424476623535
      ],
      "min": [
        0.002057555364444852,
        0.002057555364444852
      ],
      "type": "VEC2"
    },
    {
      "bufferView": 1,
      "byteOffset": 89024,
      "componentType": 5126,
      "count": 11128,
      "max": [
        0.9411960244178772,
        0.9979424476623535
      ],
      "min": [
        0.002057555364444852,
        0.002057555364444852
      ],
      "type": "VEC2"
    },
    {
      "bufferView": 1,
      "byteOffset": 178048,
      "componentType": 5126,
      "count": 11128,
      "max": [
        0.9411960244178772,
        0.9979424476623535
      ],
      "min": [
        0.002057555364444852,
        0.002057555364444852
      ],
      "type": "VEC2"
    },
    {
      "bufferView": 0,
      "componentType": 5125,
      "count": 43998,
      "type": "SCALAR"
    }
  ],
  "asset": {
    "extras": {
      "author": "Cherk (https://sketchfab.com/alex20010804)",
      "license": "CC-BY-4.0 (http://creativecommons.org/licenses/by/4.0/)",
      "source": "https://sketchfab.com/3d-models/lighting-mast-single-model-from-asset-pack-0594bfb94a2c43ecbef30fe28a3831b8",
      "title": "Lighting Mast (Single Model From Asset Pack)"
    },
    "generator": "Sketchfab-15.30.0",
    "version": "2.0"
  },
  "bufferViews": [
    {
      "buffer": 0,
      "byteLength": 175992,
      "name": "floatBufferViews",
      "target": 34963
    },
    {
      "buffer": 0,
      "byteLength": 267072,
      "byteOffset": 175992,
      "byteStride": 8,
      "name": "floatBufferViews",
      "target": 34962
    },
    {
      "buffer": 0,
      "byteLength": 267072,
      "byteOffset": 443064,
      "byteStride": 12,
      "name": "floatBufferViews",
      "target": 34962
    },
    {
      "buffer": 0,
      "byteLength": 178048,
      "byteOffset": 710136,
      "byteStride": 16,
      "name": "floatBufferViews",
      "target": 34962
    }
  ],
  "buffers": [
    {
      "byteLength": 888184,
      "uri": "scene.bin"
    }
  ],
  "images": [
    {
      "uri": "textures/lighting_mast_baseColor.png"
    },
    {
      "uri": "textures/lighting_mast_metallicRoughness.png"
    },
    {
      "uri": "textures/lighting_mast_normal.png"
    }
  ],
  "materials": [
    {
      "doubleSided": true,
      "name": "lighting_mast",
      "normalTexture": {
        "index": 2
      },
      "pbrMetallicRoughness": {
        "baseColorTexture": {
          "index": 0
        },
        "metallicRoughnessTexture": {
          "index": 1
        }
      }
    }
  ],
  "meshes": [
    {
      "name": "lighting_mast_lighting_mast_0",
      "primitives": [
        {
          "attributes": {
            "NORMAL": 1,
            "POSITION": 0,
            "TANGENT": 2,
            "TEXCOORD_0": 3,
            "TEXCOORD_1": 4,
            "TEXCOORD_2": 5
          },
          "indices": 6,
          "material": 0,
          "mode": 4
        }
      ]
    }
  ],
  "nodes": [
    {
      "children": [
        1
      ],
      "matrix": [
        1.0,
        0.0,
        0.0,
        0.0,
        0.0,
        2.220446049250313e-16,
        -1.0,
        0.0,
        0.0,
        1.0,
        2.220446049250313e-16,
        0.0,
        0.0,
        0.0,
        0.0,
        1.0
      ],
      "name": "Sketchfab_model"
    },
    {
      "children": [
        2
      ],
      "matrix": [
        0.009999999776482582,
        0.0,
        0.0,
        0.0,
        0.0,
        0.0,
        0.009999999776482582,
        0.0,
        0.0,
        -0.009999999776482582,
        0.0,
        0.0,
        0.0,
        0.0,
        0.0,
        1.0
      ],
      "name": "model.fbx"
    },
    {
      "children": [
        3
      ],
      "name": "RootNode"
    },
    {
      "children": [
        4
      ],
      "matrix": [
        100.0,
        0.0,
        0.0,
        0.0,
        0.0,
        99.99999999999972,
        -7.5497901264043296e-06,
        0.0,
        0.0,
        7.5497901264043296e-06,
        99.99999999999972,
        0.0,
        0.0,
        0.0,
        0.0,
        1.0
      ],
      "name": "lighting_mast"
    },
    {
      "mesh": 0,
      "name": "lighting_mast_lighting_mast_0"
    }
  ],
  "samplers": [
    {
      "magFilter": 9729,
      "minFilter": 9987,
      "wrapS": 10497,
      "wrapT": 10497
    }
  ],
  "scene": 0,
  "scenes": [
    {
      "name": "Sketchfab_Scene",
      "nodes": [
        0
      ]
    }
  ],
  "textures": [
    {
      "sampler": 0,
      "source": 0
    },
    {
      "sampler": 0,
      "source": 1
    },
    {
      "sampler": 0,
      "source": 2
    }
  ]
}
