{
  "accessors": [
    {
      "bufferView": 2,
      "componentType": 5126,
      "count": 1977,
      "max": [
        -0.0035000001080334187,
        0.1598999947309494,
        0.1597999930381775
      ],
      "min": [
        -0.39899998903274536,
        -0.1597999930381775,
        -0.1598999947309494
      ],
      "type": "VEC3"
    },
    {
      "bufferView": 2,
      "byteOffset": 23724,
      "componentType": 5126,
      "count": 1977,
      "max": [
        1.0,
        1.0,
        1.0
      ],
      "min": [
        -1.0,
        -1.0,
        -1.0
      ],
      "type": "VEC3"
    },
    {
      "bufferView": 1,
      "componentType": 5126,
      "count": 1977,
      "max": [
        0.9589999914169312,
        0.9940999746322632
      ],
      "min": [
        0.004399999976158142,
        0.02340000867843628
      ],
      "type": "VEC2"
    },
    {
      "bufferView": 0,
      "componentType": 5125,
      "count": 5934,
      "type": "SCALAR"
    },
    {
      "bufferView": 2,
      "byteOffset": 47448,
      "componentType": 5126,
      "count": 386,
      "max": [
        -0.18880000710487366,
        0.16259999573230743,
        0.17149999737739563
      ],
      "min": [
        -0.47920000553131104,
        -0.16110000014305115,
        -0.15230000019073486
      ],
      "type": "VEC3"
    },
    {
      "bufferView": 2,
      "byteOffset": 52080,
      "componentType": 5126,
      "count": 386,
      "max": [
        0.9999995231628418,
        0.999873697757721,
        0.999982476234436
      ],
      "min": [
        -0.9999986886978149,
        -0.9994586110115051,
        -0.99997878074646
      ],
      "type": "VEC3"
    },
    {
      "bufferView": 1,
      "byteOffset": 15816,
      "componentType": 5126,
      "count": 386,
      "max": [
        0.7567999958992004,
        0.9595000147819519
      ],
      "min": [
        0.1581999957561493,
        0.09859997034072876
      ],
      "type": "VEC2"
    },
    {
      "bufferView": 0,
      "byteOffset": 23736,
      "componentType": 5125,
      "count": 972,
      "type": "SCALAR"
    },
    {
      "bufferView": 2,
      "byteOffset": 56712,
      "componentType": 5126,
      "count": 1884,
      "max": [
        -0.0019000000320374966,
        0.1598999947309494,
        0.1597999930381775
      ],
      "min": [
        -0.32280001044273376,
        -0.1597999930381775,
        -0.1598999947309494
      ],
      "type": "VEC3"
    },
    {
      "bufferView": 2,
      "byteOffset": 79320,
      "componentType": 5126,
      "count": 1884,
      "max": [
        1.0,
        1.0,
        1.0
      ],
      "min": [
        -1.0,
        -1.0,
        -1.0
      ],
      "type": "VEC3"
    },
    {
      "bufferView": 1,
      "byteOffset": 18904,
      "componentType": 5126,
      "count": 1884,
      "max": [
        0.6098999977111816,
        0.9940999746322632
      ],
      "min": [
        0.004399999976158142,
        0.02340000867843628
      ],
      "type": "VEC2"
    },
    {
      "bufferView": 0,
      "byteOffset": 27624,
      "componentType": 5125,
      "count": 5784,
      "type": "SCALAR"
    },
    {
      "bufferView": 2,
      "byteOffset": 101928,
      "componentType": 5126,
      "count": 984,
      "max": [
        0.004100000020116568,
        0.29899999499320984,
        0.29899999499320984
      ],
      "min": [
        -0.3287000060081482,
        -0.29899999499320984,
        -0.29899999499320984
      ],
      "type": "VEC3"
    },
    {
      "bufferView": 2,
      "byteOffset": 113736,
      "componentType": 5126,
      "count": 984,
      "max": [
        0.9998457431793213,
        0.9993079304695129,
        0.9993079304695129
      ],
      "min": [
        -0.9998438954353333,
        -0.9993079304695129,
        -0.9993079304695129
      ],
      "type": "VEC3"
    },
    {
      "bufferView": 1,
      "byteOffset": 33976,
      "componentType": 5126,
      "count": 984,
      "max": [
        0.9970999956130981,
        0.9976000189781189
      ],
      "min": [
        0.002400000113993883,
        0.0029000043869018555
      ],
      "type": "VEC2"
    },
    {
      "bufferView": 0,
      "byteOffset": 50760,
      "componentType": 5125,
      "count": 4536,
      "type": "SCALAR"
    },
    {
      "bufferView": 2,
      "byteOffset": 125544,
      "componentType": 5126,
      "count": 984,
      "max": [
        0.00430000014603138,
        0.2987000048160553,
        0.2987000048160553
      ],
      "min": [
        -0.4059999883174896,
        -0.2987000048160553,
        -0.2987000048160553
      ],
      "type": "VEC3"
    },
    {
      "bufferView": 2,
      "byteOffset": 137352,
      "componentType": 5126,
      "count": 984,
      "max": [
        0.9989483952522278,
        0.9992556571960449,
        0.9992556571960449
      ],
      "min": [
        -0.9989483952522278,
        -0.9992556571960449,
        -0.9992556571960449
      ],
      "type": "VEC3"
    },
    {
      "bufferView": 1,
      "byteOffset": 41848,
      "componentType": 5126,
      "count": 984,
      "max": [
        0.9965999722480774,
        0.9970999956130981
      ],
      "min": [
        0.002899999963119626,
        0.0034000277519226074
      ],
      "type": "VEC2"
    },
    {
      "bufferView": 0,
      "byteOffset": 68904,
      "componentType": 5125,
      "count": 4536,
      "type": "SCALAR"
    },
    {
      "bufferView": 2,
      "byteOffset": 149160,
      "componentType": 5126,
      "count": 984,
      "max": [
        0.00430000014603138,
        0.2987000048160553,
        0.2987000048160553
      ],
      "min": [
        -0.4059999883174896,
        -0.2987000048160553,
        -0.2987000048160553
      ],
      "type": "VEC3"
    },
    {
      "bufferView": 2,
      "byteOffset": 160968,
      "componentType": 5126,
      "count": 984,
      "max": [
        0.9989483952522278,
        0.9992556571960449,
        0.9992556571960449
      ],
      "min": [
        -0.9989483952522278,
        -0.9992556571960449,
        -0.9992556571960449
      ],
      "type": "VEC3"
    },
    {
      "bufferView": 1,
      "byteOffset": 49720,
      "componentType": 5126,
      "count": 984,
      "max": [
        0.9965999722480774,
        0.9970999956130981
      ],
      "min": [
        0.002899999963119626,
        0.0034000277519226074
      ],
      "type": "VEC2"
    },
    {
      "bufferView": 0,
      "byteOffset": 87048,
      "componentType": 5125,
      "count": 4536,
      "type": "SCALAR"
    },
    {
      "bufferView": 2,
      "byteOffset": 172776,
      "componentType": 5126,
      "count": 7391,
      "max": [
        0.7802000045776367,
        2.6085000038146973,
        -0.09290000051259995
      ],
      "min": [
        -0.7802000045776367,
        -2.015000104904175,
        -1.0435999631881714
      ],
      "type": "VEC3"
    },
    {
      "bufferView": 2,
      "byteOffset": 261468,
      "componentType": 5126,
      "count": 7391,
      "max": [
        1.0,
        0.9997949600219727,
        0.9999929666519165
      ],
      "min": [
        -1.0,
        -0.9999657869338989,
        -0.9999834299087524
      ],
      "type": "VEC3"
    },
    {
      "bufferView": 1,
      "byteOffset": 57592,
      "componentType": 5126,
      "count": 7391,
      "max": [
        0.9945999979972839,
        0.7470999956130981
      ],
      "min": [
        0.010700000450015068,
        0.02340000867843628
      ],
      "type": "VEC2"
    },
    {
      "bufferView": 0,
      "byteOffset": 105192,
      "componentType": 5125,
      "count": 26562,
      "type": "SCALAR"
    },
    {
      "bufferView": 2,
      "byteOffset": 350160,
      "componentType": 5126,
      "count": 21,
      "max": [
        -0.46790000796318054,
        0.5224000215530396,
        -0.7002999782562256
      ],
      "min": [
        -0.6062999963760376,
        0.4668999910354614,
        -0.7548999786376953
      ],
      "type": "VEC3"
    },
    {
      "bufferView": 2,
      "byteOffset": 350412,
      "componentType": 5126,
      "count": 21,
      "max": [
        0.3696328103542328,
        -0.9289354681968689,
        0.021232031285762787
      ],
      "min": [
        0.3690606653690338,
        -0.9291698336601257,
        0.020925313234329224
      ],
      "type": "VEC3"
    },
    {
      "bufferView": 1,
      "byteOffset": 116720,
      "componentType": 5126,
      "count": 21,
      "max": [
        0.9320999979972839,
        0.9140999913215637
      ],
      "min": [
        0.9320999979972839,
        0.9140999913215637
      ],
      "type": "VEC2"
    },
    {
      "bufferView": 0,
      "byteOffset": 211440,
      "componentType": 5125,
      "count": 57,
      "type": "SCALAR"
    },
    {
      "bufferView": 2,
      "byteOffset": 350664,
      "componentType": 5126,
      "count": 984,
      "max": [
        0.004100000020116568,
        0.29899999499320984,
        0.29899999499320984
      ],
      "min": [
        -0.3287000060081482,
        -0.29899999499320984,
        -0.29899999499320984
      ],
      "type": "VEC3"
    },
    {
      "bufferView": 2,
      "byteOffset": 362472,
      "componentType": 5126,
      "count": 984,
      "max": [
        0.9998457431793213,
        0.9993079304695129,
        0.9993079304695129
      ],
      "min": [
        -0.9998438954353333,
        -0.9993079304695129,
        -0.9993079304695129
      ],
      "type": "VEC3"
    },
    {
      "bufferView": 1,
      "byteOffset": 116888,
      "componentType": 5126,
      "count": 984,
      "max": [
        0.9970999956130981,
        0.9976000189781189
      ],
      "min": [
        0.002400000113993883,
        0.0029000043869018555
      ],
      "type": "VEC2"
    },
    {
      "bufferView": 0,
      "byteOffset": 211668,
      "componentType": 5125,
      "count": 4536,
      "type": "SCALAR"
    },
    {
      "bufferView": 2,
      "byteOffset": 374280,
      "componentType": 5126,
      "count": 4,
      "max": [
        -0.5034000277519226,
        -2.694999933242798,
        -0.7962999939918518
      ],
      "min": [
        -0.5128999948501587,
        -2.732300043106079,
        -0.901199996471405
      ],
      "type": "VEC3"
    },
    {
      "bufferView": 2,
      "byteOffset": 374328,
      "componentType": 5126,
      "count": 4,
      "max": [
        -0.005395134910941124,
        -0.9423066973686218,
        0.33470413088798523
      ],
      "min": [
        -0.009486201219260693,
        -0.9423828125,
        0.33440184593200684
      ],
      "type": "VEC3"
    },
    {
      "bufferView": 1,
      "byteOffset": 124760,
      "componentType": 5126,
      "count": 4,
      "max": [
        0.9897000193595886,
        0.9146000146865845
      ],
      "min": [
        0.01810000091791153,
        0.8300999999046326
      ],
      "type": "VEC2"
    },
    {
      "bufferView": 0,
      "byteOffset": 229812,
      "componentType": 5125,
      "count": 6,
      "type": "SCALAR"
    },
    {
      "bufferView": 2,
      "byteOffset": 374376,
      "componentType": 5126,
      "count": 4,
      "max": [
        0.5128999948501587,
        -2.694999933242798,
        -0.7962999939918518
      ],
      "min": [
        0.5034000277519226,
        -2.732300043106079,
        -0.901199996471405
      ],
      "type": "VEC3"
    },
    {
      "bufferView": 2,
      "byteOffset": 374424,
      "componentType": 5126,
      "count": 4,
      "max": [
        0.009399118833243847,
        -0.9423069357872009,
        0.3347037434577942
      ],
      "min": [
        0.005395184271037579,
        -0.9423700571060181,
        0.33444035053253174
      ],
      "type": "VEC3"
    },
    {
      "bufferView": 1,
      "byteOffset": 124792,
      "componentType": 5126,
      "count": 4,
      "max": [
        0.9897000193595886,
        0.9146000146865845
      ],
      "min": [
        0.01810000091791153,
        0.8300999999046326
      ],
      "type": "VEC2"
    },
    {
      "bufferView": 0,
      "byteOffset": 229836,
      "componentType": 5125,
      "count": 6,
      "type": "SCALAR"
    },
    {
      "bufferView": 2,
      "byteOffset": 374472,
      "componentType": 5126,
      "count": 282,
      "max": [
        0.5640000104904175,
        2.6040000915527344,
        -0.1664000004529953
      ],
      "min": [
        -0.5640000104904175,
        -1.9185999631881714,
        -0.9679999947547913
      ],
      "type": "VEC3"
    },
    {
      "bufferView": 2,
      "byteOffset": 377856,
      "componentType": 5126,
      "count": 282,
      "max": [
        0.9968761205673218,
        0.9676773548126221,
        0.30689480900764465
      ],
      "min": [
        -0.9968761205673218,
        -0.27852800488471985,
        -0.9898726344108582
      ],
      "type": "VEC3"
    },
    {
      "bufferView": 1,
      "byteOffset": 124824,
      "componentType": 5126,
      "count": 282,
      "max": [
        0.9951000213623047,
        0.9922000169754028
      ],
      "min": [
        0.007799999788403511,
        0.013700008392333984
      ],
      "type": "VEC2"
    },
    {
      "bufferView": 0,
      "byteOffset": 229860,
      "componentType": 5125,
      "count": 546,
      "type": "SCALAR"
    },
    {
      "bufferView": 2,
      "byteOffset": 381240,
      "componentType": 5126,
      "count": 10,
      "max": [
        -0.1793999969959259,
        1.4656000137329102,
        -0.5414999723434448
      ],
      "min": [
        -0.23350000381469727,
        1.447100043296814,
        -0.5672000050544739
      ],
      "type": "VEC3"
    },
    {
      "bufferView": 2,
      "byteOffset": 381360,
      "componentType": 5126,
      "count": 10,
      "max": [
        -0.31649523973464966,
        0.15900062024593353,
        -0.8628214001655579
      ],
      "min": [
        -0.48002636432647705,
        0.12300309538841248,
        -0.9403506517410278
      ],
      "type": "VEC3"
    },
    {
      "bufferView": 1,
      "byteOffset": 127080,
      "componentType": 5126,
      "count": 10,
      "max": [
        0.22020000219345093,
        0.98580002784729
      ],
      "min": [
        0.007799999788403511,
        0.7811999917030334
      ],
      "type": "VEC2"
    },
    {
      "bufferView": 0,
      "byteOffset": 232044,
      "componentType": 5125,
      "count": 18,
      "type": "SCALAR"
    },
    {
      "bufferView": 2,
      "byteOffset": 381480,
      "componentType": 5126,
      "count": 1434,
      "max": [
        -0.06800000369548798,
        -1.5649000406265259,
        -0.15620000660419464
      ],
      "min": [
        -0.791700005531311,
        -2.170300006866455,
        -0.5508999824523926
      ],
      "type": "VEC3"
    },
    {
      "bufferView": 2,
      "byteOffset": 398688,
      "componentType": 5126,
      "count": 1434,
      "max": [
        0.9999999403953552,
        0.9999655485153198,
        0.9999650716781616
      ],
      "min": [
        -1.0,
        -0.9998894929885864,
        -0.9999757409095764
      ],
      "type": "VEC3"
    },
    {
      "bufferView": 1,
      "byteOffset": 127160,
      "componentType": 5126,
      "count": 1434,
      "max": [
        0.9355000257492065,
        0.9595000147819519
      ],
      "min": [
        0.17630000412464142,
        0.06879997253417969
      ],
      "type": "VEC2"
    },
    {
      "bufferView": 0,
      "byteOffset": 232116,
      "componentType": 5125,
      "count": 3306,
      "type": "SCALAR"
    },
    {
      "bufferView": 2,
      "byteOffset": 415896,
      "componentType": 5126,
      "count": 819,
      "max": [
        0.3215999901294708,
        1.1344000101089478,
        -0.09319999814033508
      ],
      "min": [
        -0.32170000672340393,
        -0.14409999549388885,
        -0.6769000291824341
      ],
      "type": "VEC3"
    },
    {
      "bufferView": 2,
      "byteOffset": 425724,
      "componentType": 5126,
      "count": 819,
      "max": [
        1.0,
        0.999646008014679,
        0.9999707341194153
      ],
      "min": [
        -1.0,
        -0.9999852776527405,
        -0.9999291300773621
      ],
      "type": "VEC3"
    },
    {
      "bufferView": 1,
      "byteOffset": 138632,
      "componentType": 5126,
      "count": 819,
      "max": [
        0.9976000189781189,
        0.9901999831199646
      ],
      "min": [
        0.10890000313520432,
        0.023899972438812256
      ],
      "type": "VEC2"
    },
    {
      "bufferView": 0,
      "byteOffset": 245340,
      "componentType": 5125,
      "count": 1932,
      "type": "SCALAR"
    },
    {
      "bufferView": 2,
      "byteOffset": 435552,
      "componentType": 5126,
      "count": 10,
      "max": [
        0.23350000381469727,
        1.4656000137329102,
        -0.5414999723434448
      ],
      "min": [
        0.1793999969959259,
        1.447100043296814,
        -0.5672000050544739
      ],
      "type": "VEC3"
    },
    {
      "bufferView": 2,
      "byteOffset": 435672,
      "componentType": 5126,
      "count": 10,
      "max": [
        0.4800143241882324,
        0.15900063514709473,
        -0.8628209829330444
      ],
      "min": [
        0.31649523973464966,
        0.12300310283899307,
        -0.9403506517410278
      ],
      "type": "VEC3"
    },
    {
      "bufferView": 1,
      "byteOffset": 145184,
      "componentType": 5126,
      "count": 10,
      "max": [
        0.22020000219345093,
        0.98580002784729
      ],
      "min": [
        0.007799999788403511,
        0.7811999917030334
      ],
      "type": "VEC2"
    },
    {
      "bufferView": 0,
      "byteOffset": 253068,
      "componentType": 5125,
      "count": 18,
      "type": "SCALAR"
    },
    {
      "bufferView": 2,
      "byteOffset": 435792,
      "componentType": 5126,
      "count": 4202,
      "max": [
        0.5130000114440918,
        -2.010200023651123,
        -0.3037000000476837
      ],
      "min": [
        -0.5130000114440918,
        -2.7441999912261963,
        -1.0259000062942505
      ],
      "type": "VEC3"
    },
    {
      "bufferView": 2,
      "byteOffset": 486216,
      "componentType": 5126,
      "count": 4202,
      "max": [
        1.0,
        0.9999996423721313,
        0.9997774362564087
      ],
      "min": [
        -1.0,
        -0.9999971985816956,
        -0.9998646378517151
      ],
      "type": "VEC3"
    },
    {
      "bufferView": 1,
      "byteOffset": 145264,
      "componentType": 5126,
      "count": 4202,
      "max": [
        0.9609000086784363,
        0.98580002784729
      ],
      "min": [
        0.0723000019788742,
        0.02249997854232788
      ],
      "type": "VEC2"
    },
    {
      "bufferView": 0,
      "byteOffset": 253140,
      "componentType": 5125,
      "count": 11298,
      "type": "SCALAR"
    },
    {
      "bufferView": 2,
      "byteOffset": 536640,
      "componentType": 5126,
      "count": 704,
      "max": [
        0.5116000175476074,
        -2.0106000900268555,
        -0.48660001158714294
      ],
      "min": [
        -0.5116000175476074,
        -2.713099956512451,
        -1.0023000240325928
      ],
      "type": "VEC3"
    },
    {
      "bufferView": 2,
      "byteOffset": 545088,
      "componentType": 5126,
      "count": 704,
      "max": [
        1.0,
        0.9999815225601196,
        0.9999869465827942
      ],
      "min": [
        -1.0,
        -0.9999814629554749,
        -0.9999876618385315
      ],
      "type": "VEC3"
    },
    {
      "bufferView": 1,
      "byteOffset": 178880,
      "componentType": 5126,
      "count": 704,
      "max": [
        0.989300012588501,
        0.9887999892234802
      ],
      "min": [
        0.48489999771118164,
        0.8740000128746033
      ],
      "type": "VEC2"
    },
    {
      "bufferView": 0,
      "byteOffset": 298332,
      "componentType": 5125,
      "count": 1992,
      "type": "SCALAR"
    },
    {
      "bufferView": 2,
      "byteOffset": 553536,
      "componentType": 5126,
      "count": 51,
      "max": [
        -0.056299999356269836,
        -1.881500005722046,
        -0.3059000074863434
      ],
      "min": [
        -0.5412999987602234,
        -2.098400115966797,
        -0.36070001125335693
      ],
      "type": "VEC3"
    },
    {
      "bufferView": 2,
      "byteOffset": 554148,
      "componentType": 5126,
      "count": 51,
      "max": [
        0.1438014805316925,
        0.7729864716529846,
        0.9982594847679138
      ],
      "min": [
        -0.9940906763076782,
        -0.9972182512283325,
        -0.9994439482688904
      ],
      "type": "VEC3"
    },
    {
      "bufferView": 1,
      "byteOffset": 184512,
      "componentType": 5126,
      "count": 51,
      "max": [
        0.6240000128746033,
        0.2192000150680542
      ],
      "min": [
        0.24459999799728394,
        0.08689999580383301
      ],
      "type": "VEC2"
    },
    {
      "bufferView": 0,
      "byteOffset": 306300,
      "componentType": 5125,
      "count": 108,
      "type": "SCALAR"
    },
    {
      "bufferView": 2,
      "byteOffset": 554760,
      "componentType": 5126,
      "count": 56,
      "max": [
        0.04699999839067459,
        -2.0195999145507813,
        -0.5016000270843506
      ],
      "min": [
        -0.04670000076293945,
        -2.219899892807007,
        -0.6585999727249146
      ],
      "type": "VEC3"
    },
    {
      "bufferView": 2,
      "byteOffset": 555432,
      "componentType": 5126,
      "count": 56,
      "max": [
        0.9653317332267761,
        -0.1954953819513321,
        0.9565111994743347
      ],
      "min": [
        -0.9711188673973083,
        -0.9992793202400208,
        -0.980176568031311
      ],
      "type": "VEC3"
    },
    {
      "bufferView": 1,
      "byteOffset": 184920,
      "componentType": 5126,
      "count": 56,
      "max": [
        0.8065999746322632,
        0.8374000191688538
      ],
      "min": [
        0.7714999914169312,
        0.8374000191688538
      ],
      "type": "VEC2"
    },
    {
      "bufferView": 0,
      "byteOffset": 306732,
      "componentType": 5125,
      "count": 159,
      "type": "SCALAR"
    },
    {
      "bufferView": 2,
      "byteOffset": 556104,
      "componentType": 5126,
      "count": 80,
      "max": [
        0.9218000173568726,
        2.714099884033203,
        -0.11590000241994858
      ],
      "min": [
        -0.9218000173568726,
        2.440700054168701,
        -0.2777000069618225
      ],
      "type": "VEC3"
    },
    {
      "bufferView": 2,
      "byteOffset": 557064,
      "componentType": 5126,
      "count": 80,
      "max": [
        0.993507981300354,
        0.1809033453464508,
        0.147004634141922
      ],
      "min": [
        -0.993507981300354,
        -0.04592225328087807,
        -0.9999979734420776
      ],
      "type": "VEC3"
    },
    {
      "bufferView": 1,
      "byteOffset": 185368,
      "componentType": 5126,
      "count": 80,
      "max": [
        0.21580000221729279,
        0.9800000190734863
      ],
      "min": [
        0.0142000000923872,
        0.7856000065803528
      ],
      "type": "VEC2"
    },
    {
      "bufferView": 0,
      "byteOffset": 307368,
      "componentType": 5125,
      "count": 144,
      "type": "SCALAR"
    },
    {
      "bufferView": 2,
      "byteOffset": 558024,
      "componentType": 5126,
      "count": 401,
      "max": [
        0.578000009059906,
        2.608099937438965,
        -0.18029999732971191
      ],
      "min": [
        -0.578000009059906,
        -2.0139999389648438,
        -0.9959999918937683
      ],
      "type": "VEC3"
    },
    {
      "bufferView": 2,
      "byteOffset": 562836,
      "componentType": 5126,
      "count": 401,
      "max": [
        0.9997376799583435,
        0.9999963641166687,
        0.9999944567680359
      ],
      "min": [
        -0.9997376799583435,
        -0.9999942779541016,
        -0.9999934434890747
      ],
      "type": "VEC3"
    },
    {
      "bufferView": 1,
      "byteOffset": 186008,
      "componentType": 5126,
      "count": 401,
      "max": [
        0.9154999852180481,
        0.8208000063896179
      ],
      "min": [
        0.9101999998092651,
        0.8184000253677368
      ],
      "type": "VEC2"
    },
    {
      "bufferView": 0,
      "byteOffset": 307944,
      "componentType": 5125,
      "count": 1044,
      "type": "SCALAR"
    },
    {
      "bufferView": 2,
      "byteOffset": 567648,
      "componentType": 5126,
      "count": 459,
      "max": [
        -0.19460000097751617,
        0.5863999724388123,
        -0.6394000053405762
      ],
      "min": [
        -0.6144999861717224,
        0.30979999899864197,
        -0.7680000066757202
      ],
      "type": "VEC3"
    },
    {
      "bufferView": 2,
      "byteOffset": 573156,
      "componentType": 5126,
      "count": 459,
      "max": [
        0.9994634985923767,
        0.9900486469268799,
        0.9997988939285278
      ],
      "min": [
        -0.9997250437736511,
        -0.9999071359634399,
        -0.9993143081665039
      ],
      "type": "VEC3"
    },
    {
      "bufferView": 1,
      "byteOffset": 189216,
      "componentType": 5126,
      "count": 459,
      "max": [
        0.16110000014305115,
        0.1801999807357788
      ],
      "min": [
        0.005400000140070915,
        0.07669997215270996
      ],
      "type": "VEC2"
    },
    {
      "bufferView": 0,
      "byteOffset": 312120,
      "componentType": 5125,
      "count": 1434,
      "type": "SCALAR"
    },
    {
      "bufferView": 2,
      "byteOffset": 578664,
      "componentType": 5126,
      "count": 1666,
      "max": [
        0.9757000207901001,
        2.7409000396728516,
        -0.0803999975323677
      ],
      "min": [
        -0.9757000207901001,
        1.9973000288009644,
        -0.3100999891757965
      ],
      "type": "VEC3"
    },
    {
      "bufferView": 2,
      "byteOffset": 598656,
      "componentType": 5126,
      "count": 1666,
      "max": [
        0.9998231530189514,
        0.9835442900657654,
        0.9998629689216614
      ],
      "min": [
        -0.9998231530189514,
        -0.9934670329093933,
        -0.9999911189079285
      ],
      "type": "VEC3"
    },
    {
      "bufferView": 1,
      "byteOffset": 192888,
      "componentType": 5126,
      "count": 1666,
      "max": [
        0.7695000171661377,
        0.989300012588501
      ],
      "min": [
        0.07760000228881836,
        0.06349998712539673
      ],
      "type": "VEC2"
    },
    {
      "bufferView": 0,
      "byteOffset": 317856,
      "componentType": 5125,
      "count": 5016,
      "type": "SCALAR"
    },
    {
      "bufferView": 2,
      "byteOffset": 618648,
      "componentType": 5126,
      "count": 455,
      "max": [
        0.6144999861717224,
        0.5863999724388123,
        -0.6394000053405762
      ],
      "min": [
        0.19460000097751617,
        0.30979999899864197,
        -0.7680000066757202
      ],
      "type": "VEC3"
    },
    {
      "bufferView": 2,
      "byteOffset": 624108,
      "componentType": 5126,
      "count": 455,
      "max": [
        0.9997251033782959,
        0.9900431036949158,
        0.9997988343238831
      ],
      "min": [
        -0.9994633793830872,
        -0.9999071955680847,
        -0.9993143081665039
      ],
      "type": "VEC3"
    },
    {
      "bufferView": 1,
      "byteOffset": 206216,
      "componentType": 5126,
      "count": 455,
      "max": [
        0.16110000014305115,
        0.5853999853134155
      ],
      "min": [
        0.005400000140070915,
        0.4818999767303467
      ],
      "type": "VEC2"
    },
    {
      "bufferView": 0,
      "byteOffset": 337920,
      "componentType": 5125,
      "count": 1434,
      "type": "SCALAR"
    },
    {
      "bufferView": 2,
      "byteOffset": 629568,
      "componentType": 5126,
      "count": 160,
      "max": [
        -0.1517000049352646,
        1.6878000497817993,
        -0.2549000084400177
      ],
      "min": [
        -0.6347000002861023,
        1.242400050163269,
        -0.39489999413490295
      ],
      "type": "VEC3"
    },
    {
      "bufferView": 2,
      "byteOffset": 631488,
      "componentType": 5126,
      "count": 160,
      "max": [
        0.8534467816352844,
        0.9333697557449341,
        0.9977965950965881
      ],
      "min": [
        -0.8188775181770325,
        -0.9876111745834351,
        -0.9985048770904541
      ],
      "type": "VEC3"
    },
    {
      "bufferView": 1,
      "byteOffset": 209856,
      "componentType": 5126,
      "count": 160,
      "max": [
        0.4916999936103821,
        0.385699987411499
      ],
      "min": [
        0.09470000118017197,
        0.0307999849319458
      ],
      "type": "VEC2"
    },
    {
      "bufferView": 0,
      "byteOffset": 343656,
      "componentType": 5125,
      "count": 423,
      "type": "SCALAR"
    },
    {
      "bufferView": 2,
      "byteOffset": 633408,
      "componentType": 5126,
      "count": 142,
      "max": [
        0.5950000286102295,
        1.6512999534606934,
        -0.4156999886035919
      ],
      "min": [
        0.1590999960899353,
        1.2376999855041504,
        -0.5072000026702881
      ],
      "type": "VEC3"
    },
    {
      "bufferView": 2,
      "byteOffset": 635112,
      "componentType": 5126,
      "count": 142,
      "max": [
        0.9732130169868469,
        0.9435395002365112,
        0.9981862902641296
      ],
      "min": [
        -0.928322970867157,
        -0.9995419979095459,
        -0.9957854747772217
      ],
      "type": "VEC3"
    },
    {
      "bufferView": 1,
      "byteOffset": 211136,
      "componentType": 5126,
      "count": 142,
      "max": [
        0.11670000106096268,
        0.51419997215271
      ],
      "min": [
        0.0038999998942017555,
        0.4067000150680542
      ],
      "type": "VEC2"
    },
    {
      "bufferView": 0,
      "byteOffset": 345348,
      "componentType": 5125,
      "count": 426,
      "type": "SCALAR"
    },
    {
      "bufferView": 2,
      "byteOffset": 636816,
      "componentType": 5126,
      "count": 10,
      "max": [
        -0.4016000032424927,
        -1.8555999994277954,
        -0.5284000039100647
      ],
      "min": [
        -0.4318000078201294,
        -1.8839999437332153,
        -0.5367000102996826
      ],
      "type": "VEC3"
    },
    {
      "bufferView": 2,
      "byteOffset": 636936,
      "componentType": 5126,
      "count": 10,
      "max": [
        -0.12788090109825134,
        0.44385793805122375,
        -0.8869249224662781
      ],
      "min": [
        -0.12791989743709564,
        0.4437904953956604,
        -0.8869591951370239
      ],
      "type": "VEC3"
    },
    {
      "bufferView": 1,
      "byteOffset": 212272,
      "componentType": 5126,
      "count": 10,
      "max": [
        0.20900000631809235,
        0.7714999914169312
      ],
      "min": [
        0.034699998795986176,
        0.6060000061988831
      ],
      "type": "VEC2"
    },
    {
      "bufferView": 0,
      "byteOffset": 347052,
      "componentType": 5125,
      "count": 18,
      "type": "SCALAR"
    },
    {
      "bufferView": 2,
      "byteOffset": 637056,
      "componentType": 5126,
      "count": 2131,
      "max": [
        0.9200000166893005,
        2.7437000274658203,
        -0.07699999958276749
      ],
      "min": [
        -0.9200000166893005,
        2.0264999866485596,
        -0.2939999997615814
      ],
      "type": "VEC3"
    },
    {
      "bufferView": 2,
      "byteOffset": 662628,
      "componentType": 5126,
      "count": 2131,
      "max": [
        0.9999010562896729,
        1.0,
        0.9999817609786987
      ],
      "min": [
        -0.9999009966850281,
        -0.9995096325874329,
        -0.9999645948410034
      ],
      "type": "VEC3"
    },
    {
      "bufferView": 1,
      "byteOffset": 212352,
      "componentType": 5126,
      "count": 2131,
      "max": [
        0.9657999873161316,
        0.9384999871253967
      ],
      "min": [
        0.15230000019073486,
        0.06050002574920654
      ],
      "type": "VEC2"
    },
    {
      "bufferView": 0,
      "byteOffset": 347124,
      "componentType": 5125,
      "count": 6258,
      "type": "SCALAR"
    },
    {
      "bufferView": 2,
      "byteOffset": 688200,
      "componentType": 5126,
      "count": 10,
      "max": [
        0.4318000078201294,
        -1.8555999994277954,
        -0.5284000039100647
      ],
      "min": [
        0.4016000032424927,
        -1.8839999437332153,
        -0.5367000102996826
      ],
      "type": "VEC3"
    },
    {
      "bufferView": 2,
      "byteOffset": 688320,
      "componentType": 5126,
      "count": 10,
      "max": [
        0.12792107462882996,
        0.443856418132782,
        -0.886925458908081
      ],
      "min": [
        0.1278725117444992,
        0.4437922537326813,
        -0.8869580626487732
      ],
      "type": "VEC3"
    },
    {
      "bufferView": 1,
      "byteOffset": 229400,
      "componentType": 5126,
      "count": 10,
      "max": [
        0.20900000631809235,
        0.7714999914169312
      ],
      "min": [
        0.034699998795986176,
        0.6060000061988831
      ],
      "type": "VEC2"
    },
    {
      "bufferView": 0,
      "byteOffset": 372156,
      "componentType": 5125,
      "count": 18,
      "type": "SCALAR"
    },
    {
      "bufferView": 2,
      "byteOffset": 688440,
      "componentType": 5126,
      "count": 142,
      "max": [
        -0.1590999960899353,
        1.6512999534606934,
        -0.4156999886035919
      ],
      "min": [
        -0.5950000286102295,
        1.2376999855041504,
        -0.5072000026702881
      ],
      "type": "VEC3"
    },
    {
      "bufferView": 2,
      "byteOffset": 690144,
      "componentType": 5126,
      "count": 142,
      "max": [
        0.9283239245414734,
        0.9435394406318665,
        0.9981863498687744
      ],
      "min": [
        -0.9732085466384888,
        -0.9995419383049011,
        -0.9957854747772217
      ],
      "type": "VEC3"
    },
    {
      "bufferView": 1,
      "byteOffset": 229480,
      "componentType": 5126,
      "count": 142,
      "max": [
        0.11670000106096268,
        0.2559000253677368
      ],
      "min": [
        0.0038999998942017555,
        0.14789998531341553
      ],
      "type": "VEC2"
    },
    {
      "bufferView": 0,
      "byteOffset": 372228,
      "componentType": 5125,
      "count": 426,
      "type": "SCALAR"
    },
    {
      "bufferView": 2,
      "byteOffset": 691848,
      "componentType": 5126,
      "count": 96,
      "max": [
        0.5127000212669373,
        -2.1342999935150146,
        -0.8065999746322632
      ],
      "min": [
        -0.5127000212669373,
        -2.4639999866485596,
        -0.9983999729156494
      ],
      "type": "VEC3"
    },
    {
      "bufferView": 2,
      "byteOffset": 693000,
      "componentType": 5126,
      "count": 96,
      "max": [
        0.9999873638153076,
        0.009324158541858196,
        0.005156637169420719
      ],
      "min": [
        -0.9999871850013733,
        -4.7460322093684226e-05,
        0.00016202683036681265
      ],
      "type": "VEC3"
    },
    {
      "bufferView": 1,
      "byteOffset": 230616,
      "componentType": 5126,
      "count": 96,
      "max": [
        0.20800000429153442,
        0.9818999767303467
      ],
      "min": [
        0.019999999552965164,
        0.6132999658584595
      ],
      "type": "VEC2"
    },
    {
      "bufferView": 0,
      "byteOffset": 373932,
      "componentType": 5125,
      "count": 192,
      "type": "SCALAR"
    },
    {
      "bufferView": 2,
      "byteOffset": 694152,
      "componentType": 5126,
      "count": 100,
      "max": [
        0.49079999327659607,
        1.5463000535964966,
        -0.37630000710487366
      ],
      "min": [
        0.16949999332427979,
        1.3973000049591064,
        -0.5782999992370605
      ],
      "type": "VEC3"
    },
    {
      "bufferView": 2,
      "byteOffset": 695352,
      "componentType": 5126,
      "count": 100,
      "max": [
        0.9540699124336243,
        0.9857242703437805,
        0.9903888702392578
      ],
      "min": [
        -0.9380353093147278,
        -0.9920368790626526,
        -0.9966775178909302
      ],
      "type": "VEC3"
    },
    {
      "bufferView": 1,
      "byteOffset": 231384,
      "componentType": 5126,
      "count": 100,
      "max": [
        0.163100004196167,
        0.4779999852180481
      ],
      "min": [
        0.11670000106096268,
        0.39990001916885376
      ],
      "type": "VEC2"
    },
    {
      "bufferView": 0,
      "byteOffset": 374700,
      "componentType": 5125,
      "count": 252,
      "type": "SCALAR"
    },
    {
      "bufferView": 2,
      "byteOffset": 696552,
      "componentType": 5126,
      "count": 10528,
      "max": [
        0.7806000113487244,
        1.1764999628067017,
        -0.03999999910593033
      ],
      "min": [
        -0.7806000113487244,
        -2.6605000495910645,
        -0.5526999831199646
      ],
      "type": "VEC3"
    },
    {
      "bufferView": 2,
      "byteOffset": 822888,
      "componentType": 5126,
      "count": 10528,
      "max": [
        1.0,
        0.9999865889549255,
        0.9999595880508423
      ],
      "min": [
        -1.0,
        -0.9999930262565613,
        -0.9999914765357971
      ],
      "type": "VEC3"
    },
    {
      "bufferView": 1,
      "byteOffset": 232184,
      "componentType": 5126,
      "count": 10528,
      "max": [
        0.9887999892234802,
        0.9175000190734863
      ],
      "min": [
        0.06790000200271606,
        0.04439997673034668
      ],
      "type": "VEC2"
    },
    {
      "bufferView": 0,
      "byteOffset": 375708,
      "componentType": 5125,
      "count": 24975,
      "type": "SCALAR"
    },
    {
      "bufferView": 2,
      "byteOffset": 949224,
      "componentType": 5126,
      "count": 389,
      "max": [
        0.04830000177025795,
        -1.8205000162124634,
        -0.48820000886917114
      ],
      "min": [
        -0.04830000177025795,
        -2.2200000286102295,
        -0.660099983215332
      ],
      "type": "VEC3"
    },
    {
      "bufferView": 2,
      "byteOffset": 953892,
      "componentType": 5126,
      "count": 389,
      "max": [
        0.9999979734420776,
        0.9996722936630249,
        0.9990047812461853
      ],
      "min": [
        -0.9999979734420776,
        -0.9996776580810547,
        -0.9999473690986633
      ],
      "type": "VEC3"
    },
    {
      "bufferView": 1,
      "byteOffset": 316408,
      "componentType": 5126,
      "count": 389,
      "max": [
        0.9990000128746033,
        0.0054000020027160645
      ],
      "min": [
        0.8705999851226807,
        0.0023999810218811035
      ],
      "type": "VEC2"
    },
    {
      "bufferView": 0,
      "byteOffset": 475608,
      "componentType": 5125,
      "count": 1224,
      "type": "SCALAR"
    },
    {
      "bufferView": 2,
      "byteOffset": 958560,
      "componentType": 5126,
      "count": 1884,
      "max": [
        -0.0019000000320374966,
        0.1598999947309494,
        0.1597999930381775
      ],
      "min": [
        -0.32280001044273376,
        -0.1597999930381775,
        -0.1598999947309494
      ],
      "type": "VEC3"
    },
    {
      "bufferView": 2,
      "byteOffset": 981168,
      "componentType": 5126,
      "count": 1884,
      "max": [
        1.0,
        1.0,
        1.0
      ],
      "min": [
        -1.0,
        -1.0,
        -1.0
      ],
      "type": "VEC3"
    },
    {
      "bufferView": 1,
      "byteOffset": 319520,
      "componentType": 5126,
      "count": 1884,
      "max": [
        0.6098999977111816,
        0.9940999746322632
      ],
      "min": [
        0.004399999976158142,
        0.02340000867843628
      ],
      "type": "VEC2"
    },
    {
      "bufferView": 0,
      "byteOffset": 480504,
      "componentType": 5125,
      "count": 5784,
      "type": "SCALAR"
    },
    {
      "bufferView": 2,
      "byteOffset": 1003776,
      "componentType": 5126,
      "count": 97,
      "max": [
        -0.16949999332427979,
        1.5463000535964966,
        -0.37630000710487366
      ],
      "min": [
        -0.49079999327659607,
        1.3973000049591064,
        -0.5782999992370605
      ],
      "type": "VEC3"
    },
    {
      "bufferView": 2,
      "byteOffset": 1004940,
      "componentType": 5126,
      "count": 97,
      "max": [
        0.9380356073379517,
        0.9857242107391357,
        0.9903887510299683
      ],
      "min": [
        -0.9540696144104004,
        -0.992037296295166,
        -0.996677577495575
      ],
      "type": "VEC3"
    },
    {
      "bufferView": 1,
      "byteOffset": 334592,
      "componentType": 5126,
      "count": 97,
      "max": [
        0.163100004196167,
        0.26270002126693726
      ],
      "min": [
        0.11670000106096268,
        0.18459999561309814
      ],
      "type": "VEC2"
    },
    {
      "bufferView": 0,
      "byteOffset": 503640,
      "componentType": 5125,
      "count": 252,
      "type": "SCALAR"
    },
    {
      "bufferView": 2,
      "byteOffset": 1006104,
      "componentType": 5126,
      "count": 24,
      "max": [
        0.46219998598098755,
        0.5863999724388123,
        -0.6557000279426575
      ],
      "min": [
        0.19460000097751617,
        0.5116999745368958,
        -0.7034000158309937
      ],
      "type": "VEC3"
    },
    {
      "bufferView": 2,
      "byteOffset": 1006392,
      "componentType": 5126,
      "count": 24,
      "max": [
        0.9965407848358154,
        0.3272286057472229,
        0.999775767326355
      ],
      "min": [
        -0.2212027907371521,
        -0.08150507509708405,
        0.020513851195573807
      ],
      "type": "VEC3"
    },
    {
      "bufferView": 1,
      "byteOffset": 335368,
      "componentType": 5126,
      "count": 24,
      "max": [
        0.9585000276565552,
        0.9160000085830688
      ],
      "min": [
        0.3666999936103821,
        0.16649997234344482
      ],
      "type": "VEC2"
    },
    {
      "bufferView": 0,
      "byteOffset": 504648,
      "componentType": 5125,
      "count": 60,
      "type": "SCALAR"
    },
    {
      "bufferView": 2,
      "byteOffset": 1006680,
      "componentType": 5126,
      "count": 24,
      "max": [
        -0.19460000097751617,
        0.5863999724388123,
        -0.6557000279426575
      ],
      "min": [
        -0.46219998598098755,
        0.5116999745368958,
        -0.7034000158309937
      ],
      "type": "VEC3"
    },
    {
      "bufferView": 2,
      "byteOffset": 1006968,
      "componentType": 5126,
      "count": 24,
      "max": [
        0.2212027758359909,
        0.3272285759449005,
        0.9997766017913818
      ],
      "min": [
        -0.9965407848358154,
        -0.08150552213191986,
        0.020514726638793945
      ],
      "type": "VEC3"
    },
    {
      "bufferView": 1,
      "byteOffset": 335560,
      "componentType": 5126,
      "count": 24,
      "max": [
        0.9585000276565552,
        0.9160000085830688
      ],
      "min": [
        0.3666999936103821,
        0.16649997234344482
      ],
      "type": "VEC2"
    },
    {
      "bufferView": 0,
      "byteOffset": 504888,
      "componentType": 5125,
      "count": 60,
      "type": "SCALAR"
    },
    {
      "bufferView": 2,
      "byteOffset": 1007256,
      "componentType": 5126,
      "count": 386,
      "max": [
        -0.18880000710487366,
        0.16259999573230743,
        0.17149999737739563
      ],
      "min": [
        -0.47920000553131104,
        -0.16110000014305115,
        -0.15230000019073486
      ],
      "type": "VEC3"
    },
    {
      "bufferView": 2,
      "byteOffset": 1011888,
      "componentType": 5126,
      "count": 386,
      "max": [
        0.9999995231628418,
        0.999873697757721,
        0.999982476234436
      ],
      "min": [
        -0.9999986886978149,
        -0.9994586110115051,
        -0.99997878074646
      ],
      "type": "VEC3"
    },
    {
      "bufferView": 1,
      "byteOffset": 335752,
      "componentType": 5126,
      "count": 386,
      "max": [
        0.7567999958992004,
        0.9595000147819519
      ],
      "min": [
        0.1581999957561493,
        0.09859997034072876
      ],
      "type": "VEC2"
    },
    {
      "bufferView": 0,
      "byteOffset": 505128,
      "componentType": 5125,
      "count": 972,
      "type": "SCALAR"
    },
    {
      "bufferView": 2,
      "byteOffset": 1016520,
      "componentType": 5126,
      "count": 42,
      "max": [
        0.04270000010728836,
        -2.5808000564575195,
        -0.3928000032901764
      ],
      "min": [
        -0.04270000010728836,
        -2.5859999656677246,
        -0.4959000051021576
      ],
      "type": "VEC3"
    },
    {
      "bufferView": 2,
      "byteOffset": 1017024,
      "componentType": 5126,
      "count": 42,
      "max": [
        0.7001010775566101,
        -0.6875929236412048,
        0.6660860180854797
      ],
      "min": [
        -0.7001006007194519,
        -0.9991382956504822,
        -0.7260964512825012
      ],
      "type": "VEC3"
    },
    {
      "bufferView": 1,
      "byteOffset": 338840,
      "componentType": 5126,
      "count": 42,
      "max": [
        0.4740999937057495,
        0.6577000021934509
      ],
      "min": [
        0.02930000051856041,
        0.12059998512268066
      ],
      "type": "VEC2"
    },
    {
      "bufferView": 0,
      "byteOffset": 509016,
      "componentType": 5125,
      "count": 120,
      "type": "SCALAR"
    },
    {
      "bufferView": 2,
      "byteOffset": 1017528,
      "componentType": 5126,
      "count": 21,
      "max": [
        0.6062999963760376,
        0.5224000215530396,
        -0.7002999782562256
      ],
      "min": [
        0.46790000796318054,
        0.4668999910354614,
        -0.7548999786376953
      ],
      "type": "VEC3"
    },
    {
      "bufferView": 2,
      "byteOffset": 1017780,
      "componentType": 5126,
      "count": 21,
      "max": [
        -0.36934399604797363,
        -0.9289230704307556,
        0.021491369232535362
      ],
      "min": [
        -0.36966559290885925,
        -0.9290539622306824,
        0.02099474146962166
      ],
      "type": "VEC3"
    },
    {
      "bufferView": 1,
      "byteOffset": 339176,
      "componentType": 5126,
      "count": 21,
      "max": [
        0.9320999979972839,
        0.9140999913215637
      ],
      "min": [
        0.9320999979972839,
        0.9140999913215637
      ],
      "type": "VEC2"
    },
    {
      "bufferView": 0,
      "byteOffset": 509496,
      "componentType": 5125,
      "count": 57,
      "type": "SCALAR"
    },
    {
      "bufferView": 2,
      "byteOffset": 1018032,
      "componentType": 5126,
      "count": 8,
      "max": [
        0.5128999948501587,
        -2.694499969482422,
        -0.7962999939918518
      ],
      "min": [
        -0.5128999948501587,
        -2.731800079345703,
        -0.901199996471405
      ],
      "type": "VEC3"
    },
    {
      "bufferView": 2,
      "byteOffset": 1018128,
      "componentType": 5126,
      "count": 8,
      "max": [
        0.009399118833243847,
        -0.9423066973686218,
        0.33470413088798523
      ],
      "min": [
        -0.009486201219260693,
        -0.9423828125,
        0.33440184593200684
      ],
      "type": "VEC3"
    },
    {
      "bufferView": 1,
      "byteOffset": 339344,
      "componentType": 5126,
      "count": 8,
      "max": [
        0.9897000193595886,
        0.7724999785423279
      ],
      "min": [
        0.01810000091791153,
        0.687999963760376
      ],
      "type": "VEC2"
    },
    {
      "bufferView": 0,
      "byteOffset": 509724,
      "componentType": 5125,
      "count": 12,
      "type": "SCALAR"
    },
    {
      "bufferView": 2,
      "byteOffset": 1018224,
      "componentType": 5126,
      "count": 54,
      "max": [
        0.5412999987602234,
        -1.881500005722046,
        -0.3059000074863434
      ],
      "min": [
        0.056299999356269836,
        -2.098400115966797,
        -0.36070001125335693
      ],
      "type": "VEC3"
    },
    {
      "bufferView": 2,
      "byteOffset": 1018872,
      "componentType": 5126,
      "count": 54,
      "max": [
        0.9940857291221619,
        0.7730164527893066,
        0.9982595443725586
      ],
      "min": [
        -0.1437990814447403,
        -0.9972183108329773,
        -0.9994439482688904
      ],
      "type": "VEC3"
    },
    {
      "bufferView": 1,
      "byteOffset": 339408,
      "componentType": 5126,
      "count": 54,
      "max": [
        0.6240000128746033,
        0.2192000150680542
      ],
      "min": [
        0.24459999799728394,
        0.08689999580383301
      ],
      "type": "VEC2"
    },
    {
      "bufferView": 0,
      "byteOffset": 509772,
      "componentType": 5125,
      "count": 108,
      "type": "SCALAR"
    },
    {
      "bufferView": 2,
      "byteOffset": 1019520,
      "componentType": 5126,
      "count": 166,
      "max": [
        0.6347000002861023,
        1.6878000497817993,
        -0.2549000084400177
      ],
      "min": [
        0.1517000049352646,
        1.242400050163269,
        -0.39489999413490295
      ],
      "type": "VEC3"
    },
    {
      "bufferView": 2,
      "byteOffset": 1021512,
      "componentType": 5126,
      "count": 166,
      "max": [
        0.8188779354095459,
        0.9333525896072388,
        0.9977994561195374
      ],
      "min": [
        -0.8533964157104492,
        -0.9876104593276978,
        -0.9985048770904541
      ],
      "type": "VEC3"
    },
    {
      "bufferView": 1,
      "byteOffset": 339840,
      "componentType": 5126,
      "count": 166,
      "max": [
        0.4916999936103821,
        0.385699987411499
      ],
      "min": [
        0.09470000118017197,
        0.0307999849319458
      ],
      "type": "VEC2"
    },
    {
      "bufferView": 0,
      "byteOffset": 510204,
      "componentType": 5125,
      "count": 423,
      "type": "SCALAR"
    },
    {
      "bufferView": 2,
      "byteOffset": 1023504,
      "componentType": 5126,
      "count": 5,
      "max": [
        -0.3231000006198883,
        0.059300001710653305,
        -0.037700001150369644
      ],
      "min": [
        -0.3303999900817871,
        0.051600001752376556,
        -0.038600001484155655
      ],
      "type": "VEC3"
    },
    {
      "bufferView": 2,
      "byteOffset": 1023564,
      "componentType": 5126,
      "count": 5,
      "max": [
        0.10738340020179749,
        0.0476110503077507,
        -0.9931116700172424
      ],
      "min": [
        0.10601521283388138,
        0.04589952155947685,
        -0.9932432174682617
      ],
      "type": "VEC3"
    },
    {
      "bufferView": 1,
      "byteOffset": 341168,
      "componentType": 5126,
      "count": 5,
      "max": [
        0.22020000219345093,
        0.98580002784729
      ],
      "min": [
        0.007799999788403511,
        0.7811999917030334
      ],
      "type": "VEC2"
    },
    {
      "bufferView": 0,
      "byteOffset": 511896,
      "componentType": 5125,
      "count": 9,
      "type": "SCALAR"
    },
    {
      "bufferView": 2,
      "byteOffset": 1023624,
      "componentType": 5126,
      "count": 3580,
      "max": [
        0.7803999781608582,
        2.547300100326538,
        -0.09290000051259995
      ],
      "min": [
        -0.7803999781608582,
        -1.9901000261306763,
        -1.1382999420166016
      ],
      "type": "VEC3"
    },
    {
      "bufferView": 2,
      "byteOffset": 1066584,
      "componentType": 5126,
      "count": 3580,
      "max": [
        1.0,
        0.9999935626983643,
        0.9999589920043945
      ],
      "min": [
        -1.0,
        -0.9999979138374329,
        -0.9999899864196777
      ],
      "type": "VEC3"
    },
    {
      "bufferView": 1,
      "byteOffset": 341208,
      "componentType": 5126,
      "count": 3580,
      "max": [
        0.9599999785423279,
        0.9785000085830688
      ],
      "min": [
        0.09809999912977219,
        0.04689997434616089
      ],
      "type": "VEC2"
    },
    {
      "bufferView": 0,
      "byteOffset": 511932,
      "componentType": 5125,
      "count": 10002,
      "type": "SCALAR"
    },
    {
      "bufferView": 2,
      "byteOffset": 1109544,
      "componentType": 5126,
      "count": 1977,
      "max": [
        -0.0035000001080334187,
        0.1598999947309494,
        0.1597999930381775
      ],
      "min": [
        -0.39899998903274536,
        -0.1597999930381775,
        -0.1598999947309494
      ],
      "type": "VEC3"
    },
    {
      "bufferView": 2,
      "byteOffset": 1133268,
      "componentType": 5126,
      "count": 1977,
      "max": [
        1.0,
        1.0,
        1.0
      ],
      "min": [
        -1.0,
        -1.0,
        -1.0
      ],
      "type": "VEC3"
    },
    {
      "bufferView": 1,
      "byteOffset": 369848,
      "componentType": 5126,
      "count": 1977,
      "max": [
        0.9589999914169312,
        0.9940999746322632
      ],
      "min": [
        0.004399999976158142,
        0.02340000867843628
      ],
      "type": "VEC2"
    },
    {
      "bufferView": 0,
      "byteOffset": 551940,
      "componentType": 5125,
      "count": 5934,
      "type": "SCALAR"
    },
    {
      "bufferView": 2,
      "byteOffset": 1156992,
      "componentType": 5126,
      "count": 1492,
      "max": [
        0.791700005531311,
        -1.5649000406265259,
        -0.15620000660419464
      ],
      "min": [
        0.06800000369548798,
        -2.170300006866455,
        -0.5508999824523926
      ],
      "type": "VEC3"
    },
    {
      "bufferView": 2,
      "byteOffset": 1174896,
      "componentType": 5126,
      "count": 1492,
      "max": [
        1.0,
        0.9999656081199646,
        0.9999639391899109
      ],
      "min": [
        -1.0,
        -0.9998894929885864,
        -0.9999757409095764
      ],
      "type": "VEC3"
    },
    {
      "bufferView": 1,
      "byteOffset": 385664,
      "componentType": 5126,
      "count": 1492,
      "max": [
        0.9355000257492065,
        0.9595000147819519
      ],
      "min": [
        0.17630000412464142,
        0.06879997253417969
      ],
      "type": "VEC2"
    },
    {
      "bufferView": 0,
      "byteOffset": 575676,
      "componentType": 5125,
      "count": 3306,
      "type": "SCALAR"
    },
    {
      "bufferView": 2,
      "byteOffset": 1192800,
      "componentType": 5126,
      "count": 819,
      "max": [
        0.10909999907016754,
        0.04910000041127205,
        0.05510000139474869
      ],
      "min": [
        -0.10909999907016754,
        -0.021199999377131462,
        -0.0812000036239624
      ],
      "type": "VEC3"
    },
    {
      "bufferView": 2,
      "byteOffset": 1202628,
      "componentType": 5126,
      "count": 819,
      "max": [
        1.0,
        1.0,
        1.0
      ],
      "min": [
        -1.0,
        -1.0,
        -1.0
      ],
      "type": "VEC3"
    },
    {
      "bufferView": 1,
      "byteOffset": 397600,
      "componentType": 5126,
      "count": 819,
      "max": [
        0.9589999914169312,
        0.9404000043869019
      ],
      "min": [
        0.013199999928474426,
        0.011699974536895752
      ],
      "type": "VEC2"
    },
    {
      "bufferView": 0,
      "byteOffset": 588900,
      "componentType": 5125,
      "count": 2166,
      "type": "SCALAR"
    }
  ],
  "asset": {
    "extras": {
      "author": "OUTPISTON (https://sketchfab.com/outpiston)",
      "license": "CC-BY-NC-SA-4.0 (http://creativecommons.org/licenses/by-nc-sa/4.0/)",
      "source": "https://sketchfab.com/3d-models/2020-f1-ferrari-sf1000-b41d5f1096664601ad1f511ca4cd138f",
      "title": "2020 F1 Ferrari SF1000"
    },
    "generator": "Sketchfab-16.95.0",
    "version": "2.0"
  },
  "bufferViews": [
    {
      "buffer": 0,
      "byteLength": 597564,
      "name": "floatBufferViews",
      "target": 34963
    },
    {
      "buffer": 0,
      "byteLength": 404152,
      "byteOffset": 597564,
      "byteStride": 8,
      "name": "floatBufferViews",
      "target": 34962
    },
    {
      "buffer": 0,
      "byteLength": 1212456,
      "byteOffset": 1001716,
      "byteStride": 12,
      "name": "floatBufferViews",
      "target": 34962
    }
  ],
  "buffers": [
    {
      "byteLength": 2214172,
      "uri": "scene.bin"
    }
  ],
  "images": [
    {
      "uri": "textures/2020_f1_ferrari_sf1000_wheel.etc.png_baseColor.png"
    },
    {
      "uri": "textures/2020_f1_ferrari_sf1000_misc.etc.png_baseColor.png"
    },
    {
      "uri": "textures/car_tyre_tread.etc.png_baseColor.png"
    },
    {
      "uri": "textures/2020_f1_ferrari_sf1000_ext_16.etc.png_baseColor.png"
    },
    {
      "uri": "textures/2020_f1_ferrari_sf1000_lights.etc.png_baseColor.png"
    },
    {
      "uri": "textures/2020_f1_ferrari_sf1000_badges.etc.png_baseColor.png"
    },
    {
      "uri": "textures/2020_f1_ferrari_sf1000_cab.etc.png_baseColor.png"
    },
    {
      "uri": "textures/car_chassis.etc.png_baseColor.png"
    }
  ],
  "materials": [
    {
      "name": "2020_f1_ferrari_sf1000_wheel.etc.png",
      "pbrMetallicRoughness": {
        "baseColorTexture": {
          "index": 0
        },
        "metallicFactor": 0.5,
        "roughnessFactor": 0.5
      }
    },
    {
      "name": "2020_f1_ferrari_sf1000_misc.etc.png",
      "pbrMetallicRoughness": {
        "baseColorTexture": {
          "index": 1
        },
        "metallicFactor": 0.5,
        "roughnessFactor": 0.5
      }
    },
    {
      "name": "car_tyre_tread.etc.png",
      "pbrMetallicRoughness": {
        "baseColorTexture": {
          "index": 2
        },
        "metallicFactor": 0.5,
        "roughnessFactor": 0.5
      }
    },
    {
      "name": "2020_f1_ferrari_sf1000_ext_16.etc.png",
      "pbrMetallicRoughness": {
        "baseColorTexture": {
          "index": 3
        },
        "metallicFactor": 0.0,
        "roughnessFactor": 0.0
      }
    },
    {
      "name": "2020_f1_ferrari_sf1000_lights.etc.png",
      "pbrMetallicRoughness": {
        "baseColorTexture": {
          "index": 4
        },
        "metallicFactor": 0.0,
        "roughnessFactor": 0.0
      }
    },
    {
      "alphaMode": "MASK",
      "name": "2020_f1_ferrari_sf1000_badges.etc.png",
      "pbrMetallicRoughness": {
        "baseColorTexture": {
          "index": 5
        },
        "metallicFactor": 0.5,
        "roughnessFactor": 0.5
      }
    },
    {
      "name": "2020_f1_ferrari_sf1000_cab.etc.png",
      "pbrMetallicRoughness": {
        "baseColorTexture": {
          "index": 6
        },
        "metallicFactor": 0.5,
        "roughnessFactor": 0.5
      }
    },
    {
      "name": "car_chassis.etc.png",
      "pbrMetallicRoughness": {
        "baseColorTexture": {
          "index": 7
        },
        "metallicFactor": 0.5,
        "roughnessFactor": 0.5
      }
    }
  ],
  "meshes": [
    {
      "name": "Object_0",
      "primitives": [
        {
          "attributes": {
            "NORMAL": 1,
            "POSITION": 0,
            "TEXCOORD_0": 2
          },
          "indices": 3,
          "material": 0,
          "mode": 4
        }
      ]
    },
    {
      "name": "Object_1",
      "primitives": [
        {
          "attributes": {
            "NORMAL": 5,
            "POSITION": 4,
            "TEXCOORD_0": 6
          },
          "indices": 7,
          "material": 1,
          "mode": 4
        }
      ]
    },
    {
      "name": "Object_2",
      "primitives": [
        {
          "attributes": {
            "NORMAL": 9,
            "POSITION": 8,
            "TEXCOORD_0": 10
          },
          "indices": 11,
          "material": 0,
          "mode": 4
        }
      ]
    },
    {
      "name": "Object_3",
      "primitives": [
        {
          "attributes": {
            "NORMAL": 13,
            "POSITION": 12,
            "TEXCOORD_0": 14
          },
          "indices": 15,
          "material": 2,
          "mode": 4
        }
      ]
    },
    {
      "name": "Object_4",
      "primitives": [
        {
          "attributes": {
            "NORMAL": 17,
            "POSITION": 16,
            "TEXCOORD_0": 18
          },
          "indices": 19,
          "material": 2,
          "mode": 4
        }
      ]
    },
    {
      "name": "Object_5",
      "primitives": [
        {
          "attributes": {
            "NORMAL": 21,
            "POSITION": 20,
            "TEXCOORD_0": 22
          },
          "indices": 23,
          "material": 2,
          "mode": 4
        }
      ]
    },
    {
      "name": "Object_6",
      "primitives": [
        {
          "attributes": {
            "NORMAL": 25,
            "POSITION": 24,
            "TEXCOORD_0": 26
          },
          "indices": 27,
          "material": 3,
          "mode": 4
        }
      ]
    },
    {
      "name": "Object_7",
      "primitives": [
        {
          "attributes": {
            "NORMAL": 29,
            "POSITION": 28,
            "TEXCOORD_0": 30
          },
          "indices": 31,
          "material": 1,
          "mode": 4
        }
      ]
    },
    {
      "name": "Object_8",
      "primitives": [
        {
          "attributes": {
            "NORMAL": 33,
            "POSITION": 32,
            "TEXCOORD_0": 34
          },
          "indices": 35,
          "material": 2,
          "mode": 4
        }
      ]
    },
    {
      "name": "Object_9",
      "primitives": [
        {
          "attributes": {
            "NORMAL": 37,
            "POSITION": 36,
            "TEXCOORD_0": 38
          },
          "indices": 39,
          "material": 4,
          "mode": 4
        }
      ]
    },
    {
      "name": "Object_10",
      "primitives": [
        {
          "attributes": {
            "NORMAL": 41,
            "POSITION": 40,
            "TEXCOORD_0": 42
          },
          "indices": 43,
          "material": 4,
          "mode": 4
        }
      ]
    },
    {
      "name": "Object_11",
      "primitives": [
        {
          "attributes": {
            "NORMAL": 45,
            "POSITION": 44,
            "TEXCOORD_0": 46
          },
          "indices": 47,
          "material": 5,
          "mode": 4
        }
      ]
    },
    {
      "name": "Object_12",
      "primitives": [
        {
          "attributes": {
            "NORMAL": 49,
            "POSITION": 48,
            "TEXCOORD_0": 50
          },
          "indices": 51,
          "material": 5,
          "mode": 4
        }
      ]
    },
    {
      "name": "Object_13",
      "primitives": [
        {
          "attributes": {
            "NORMAL": 53,
            "POSITION": 52,
            "TEXCOORD_0": 54
          },
          "indices": 55,
          "material": 1,
          "mode": 4
        }
      ]
    },
    {
      "name": "Object_14",
      "primitives": [
        {
          "attributes": {
            "NORMAL": 57,
            "POSITION": 56,
            "TEXCOORD_0": 58
          },
          "indices": 59,
          "material": 6,
          "mode": 4
        }
      ]
    },
    {
      "name": "Object_15",
      "primitives": [
        {
          "attributes": {
            "NORMAL": 61,
            "POSITION": 60,
            "TEXCOORD_0": 62
          },
          "indices": 63,
          "material": 5,
          "mode": 4
        }
      ]
    },
    {
      "name": "Object_16",
      "primitives": [
        {
          "attributes": {
            "NORMAL": 65,
            "POSITION": 64,
            "TEXCOORD_0": 66
          },
          "indices": 67,
          "material": 1,
          "mode": 4
        }
      ]
    },
    {
      "name": "Object_17",
      "primitives": [
        {
          "attributes": {
            "NORMAL": 69,
            "POSITION": 68,
            "TEXCOORD_0": 70
          },
          "indices": 71,
          "material": 3,
          "mode": 4
        }
      ]
    },
    {
      "name": "Object_18",
      "primitives": [
        {
          "attributes": {
            "NORMAL": 73,
            "POSITION": 72,
            "TEXCOORD_0": 74
          },
          "indices": 75,
          "material": 1,
          "mode": 4
        }
      ]
    },
    {
      "name": "Object_19",
      "primitives": [
        {
          "attributes": {
            "NORMAL": 77,
            "POSITION": 76,
            "TEXCOORD_0": 78
          },
          "indices": 79,
          "material": 7,
          "mode": 4
        }
      ]
    },
    {
      "name": "Object_20",
      "primitives": [
        {
          "attributes": {
            "NORMAL": 81,
            "POSITION": 80,
            "TEXCOORD_0": 82
          },
          "indices": 83,
          "material": 5,
          "mode": 4
        }
      ]
    },
    {
      "name": "Object_21",
      "primitives": [
        {
          "attributes": {
            "NORMAL": 85,
            "POSITION": 84,
            "TEXCOORD_0": 86
          },
          "indices": 87,
          "material": 7,
          "mode": 4
        }
      ]
    },
    {
      "name": "Object_22",
      "primitives": [
        {
          "attributes": {
            "NORMAL": 89,
            "POSITION": 88,
            "TEXCOORD_0": 90
          },
          "indices": 91,
          "material": 3,
          "mode": 4
        }
      ]
    },
    {
      "name": "Object_23",
      "primitives": [
        {
          "attributes": {
            "NORMAL": 93,
            "POSITION": 92,
            "TEXCOORD_0": 94
          },
          "indices": 95,
          "material": 3,
          "mode": 4
        }
      ]
    },
    {
      "name": "Object_24",
      "primitives": [
        {
          "attributes": {
            "NORMAL": 97,
            "POSITION": 96,
            "TEXCOORD_0": 98
          },
          "indices": 99,
          "material": 3,
          "mode": 4
        }
      ]
    },
    {
      "name": "Object_25",
      "primitives": [
        {
          "attributes": {
            "NORMAL": 101,
            "POSITION": 100,
            "TEXCOORD_0": 102
          },
          "indices": 103,
          "material": 1,
          "mode": 4
        }
      ]
    },
    {
      "name": "Object_26",
      "primitives": [
        {
          "attributes": {
            "NORMAL": 105,
            "POSITION": 104,
            "TEXCOORD_0": 106
          },
          "indices": 107,
          "material": 3,
          "mode": 4
        }
      ]
    },
    {
      "name": "Object_27",
      "primitives": [
        {
          "attributes": {
            "NORMAL": 109,
            "POSITION": 108,
            "TEXCOORD_0": 110
          },
          "indices": 111,
          "material": 5,
          "mode": 4
        }
      ]
    },
    {
      "name": "Object_28",
      "primitives": [
        {
          "attributes": {
            "NORMAL": 113,
            "POSITION": 112,
            "TEXCOORD_0": 114
          },
          "indices": 115,
          "material": 1,
          "mode": 4
        }
      ]
    },
    {
      "name": "Object_29",
      "primitives": [
        {
          "attributes": {
            "NORMAL": 117,
            "POSITION": 116,
            "TEXCOORD_0": 118
          },
          "indices": 119,
          "material": 5,
          "mode": 4
        }
      ]
    },
    {
      "name": "Object_30",
      "primitives": [
        {
          "attributes": {
            "NORMAL": 121,
            "POSITION": 120,
            "TEXCOORD_0": 122
          },
          "indices": 123,
          "material": 3,
          "mode": 4
        }
      ]
    },
    {
      "name": "Object_31",
      "primitives": [
        {
          "attributes": {
            "NORMAL": 125,
            "POSITION": 124,
            "TEXCOORD_0": 126
          },
          "indices": 127,
          "material": 5,
          "mode": 4
        }
      ]
    },
    {
      "name": "Object_32",
      "primitives": [
        {
          "attributes": {
            "NORMAL": 129,
            "POSITION": 128,
            "TEXCOORD_0": 130
          },
          "indices": 131,
          "material": 3,
          "mode": 4
        }
      ]
    },
    {
      "name": "Object_33",
      "primitives": [
        {
          "attributes": {
            "NORMAL": 133,
            "POSITION": 132,
            "TEXCOORD_0": 134
          },
          "indices": 135,
          "material": 1,
          "mode": 4
        }
      ]
    },
    {
      "name": "Object_34",
      "primitives": [
        {
          "attributes": {
            "NORMAL": 137,
            "POSITION": 136,
            "TEXCOORD_0": 138
          },
          "indices": 139,
          "material": 3,
          "mode": 4
        }
      ]
    },
    {
      "name": "Object_35",
      "primitives": [
        {
          "attributes": {
            "NORMAL": 141,
            "POSITION": 140,
            "TEXCOORD_0": 142
          },
          "indices": 143,
          "material": 0,
          "mode": 4
        }
      ]
    },
    {
      "name": "Object_36",
      "primitives": [
        {
          "attributes": {
            "NORMAL": 145,
            "POSITION": 144,
            "TEXCOORD_0": 146
          },
          "indices": 147,
          "material": 3,
          "mode": 4
        }
      ]
    },
    {
      "name": "Object_37",
      "primitives": [
        {
          "attributes": {
            "NORMAL": 149,
            "POSITION": 148,
            "TEXCOORD_0": 150
          },
          "indices": 151,
          "material": 1,
          "mode": 4
        }
      ]
    },
    {
      "name": "Object_38",
      "primitives": [
        {
          "attributes": {
            "NORMAL": 153,
            "POSITION": 152,
            "TEXCOORD_0": 154
          },
          "indices": 155,
          "material": 1,
          "mode": 4
        }
      ]
    },
    {
      "name": "Object_39",
      "primitives": [
        {
          "attributes": {
            "NORMAL": 157,
            "POSITION": 156,
            "TEXCOORD_0": 158
          },
          "indices": 159,
          "material": 1,
          "mode": 4
        }
      ]
    },
    {
      "name": "Object_40",
      "primitives": [
        {
          "attributes": {
            "NORMAL": 161,
            "POSITION": 160,
            "TEXCOORD_0": 162
          },
          "indices": 163,
          "material": 4,
          "mode": 4
        }
      ]
    },
    {
      "name": "Object_41",
      "primitives": [
        {
          "attributes": {
            "NORMAL": 165,
            "POSITION": 164,
            "TEXCOORD_0": 166
          },
          "indices": 167,
          "material": 1,
          "mode": 4
        }
      ]
    },
    {
      "name": "Object_42",
      "primitives": [
        {
          "attributes": {
            "NORMAL": 169,
            "POSITION": 168,
            "TEXCOORD_0": 170
          },
          "indices": 171,
          "material": 4,
          "mode": 4
        }
      ]
    },
    {
      "name": "Object_43",
      "primitives": [
        {
          "attributes": {
            "NORMAL": 173,
            "POSITION": 172,
            "TEXCOORD_0": 174
          },
          "indices": 175,
          "material": 1,
          "mode": 4
        }
      ]
    },
    {
      "name": "Object_44",
      "primitives": [
        {
          "attributes": {
            "NORMAL": 177,
            "POSITION": 176,
            "TEXCOORD_0": 178
          },
          "indices": 179,
          "material": 1,
          "mode": 4
        }
      ]
    },
    {
      "name": "Object_45",
      "primitives": [
        {
          "attributes": {
            "NORMAL": 181,
            "POSITION": 180,
            "TEXCOORD_0": 182
          },
          "indices": 183,
          "material": 5,
          "mode": 4
        }
      ]
    },
    {
      "name": "Object_46",
      "primitives": [
        {
          "attributes": {
            "NORMAL": 185,
            "POSITION": 184,
            "TEXCOORD_0": 186
          },
          "indices": 187,
          "material": 1,
          "mode": 4
        }
      ]
    },
    {
      "name": "Object_47",
      "primitives": [
        {
          "attributes": {
            "NORMAL": 189,
            "POSITION": 188,
            "TEXCOORD_0": 190
          },
          "indices": 191,
          "material": 0,
          "mode": 4
        }
      ]
    },
    {
      "name": "Object_48",
      "primitives": [
        {
          "attributes": {
            "NORMAL": 193,
            "POSITION": 192,
            "TEXCOORD_0": 194
          },
          "indices": 195,
          "material": 1,
          "mode": 4
        }
      ]
    },
    {
      "name": "Object_49",
      "primitives": [
        {
          "attributes": {
            "NORMAL": 197,
            "POSITION": 196,
            "TEXCOORD_0": 198
          },
          "indices": 199,
          "material": 6,
          "mode": 4
        }
      ]
    }
  ],
  "nodes": [
    {
      "children": [
        1
      ],
      "matrix": [
        1.0,
        0.0,
        0.0,
        0.0,
        0.0,
        2.220446049250313e-16,
        -1.0,
        0.0,
        0.0,
        1.0,
        2.220446049250313e-16,
        0.0,
        0.0,
        0.0,
        0.0,
        1.0
      ],
      "name": "Sketchfab_model"
    },
    {
      "children": [
        2
      ],
      "name": "root"
    },
    {
      "children": [
        3,
        5,
        7,
        9,
        11,
        13,
        15,
        17,
        19,
        21,
        23,
        25,
        27,
        29,
        31,
        33,
        35,
        37,
        39,
        41,
        43,
        45,
        47,
        49,
        51,
        53,
        55,
        57,
        59,
        61,
        63,
        65,
        67,
        69,
        71,
        73,
        75,
        77,
        79,
        81,
        83,
        85,
        87,
        89,
        91,
        93,
        95,
        97,
        99,
        101
      ],
      "matrix": [
        1.0,
        0.0,
        0.0,
        0.0,
        0.0,
        2.220446049250313e-16,
        1.0,
        0.0,
        0.0,
        -1.0,
        2.220446049250313e-16,
        0.0,
        0.0,
        0.0,
        0.0,
        1.0
      ],
      "name": "GLTF_SceneRootNode"
    },
    {
      "children": [
        4
      ],
      "matrix": [
        -1.0,
        -0.0,
        0.0,
        -0.0,
        0.0,
        -1.685873969314855e-07,
        0.9999999999999858,
        0.0,
        0.0,
        -0.9999999999999858,
        -1.685873969314855e-07,
        0.0,
        -0.9499053955078125,
        0.3267003297805786,
        -1.999400019645691,
        1.0
      ],
      "name": "LOD_A_WHEEL_REAR_mm_wheel.001_0"
    },
    {
      "mesh": 0,
      "name": "Object_4"
    },
    {
      "children": [
        6
      ],
      "matrix": [
        -1.0,
        -0.0,
        -0.0,
        -0.0,
        0.0,
        -1.685873969314855e-07,
        0.9999999999999858,
        0.0,
        0.0,
        -0.9999999999999858,
        -1.685873969314855e-07,
        0.0,
        -0.9732000827789307,
        0.3278580904006958,
        1.5602000951766968,
        1.0
      ],
      "name": "LOD_A_WHEELGUARD_FRONT_LEFT_mm_misc.001_1"
    },
    {
      "mesh": 1,
      "name": "Object_6"
    },
    {
      "children": [
        8
      ],
      "matrix": [
        -1.0,
        -0.0,
        -0.0,
        -0.0,
        0.0,
        -1.685873969314855e-07,
        0.9999999999999858,
        0.0,
        0.0,
        -0.9999999999999858,
        -1.685873969314855e-07,
        0.0,
        -0.9433739185333252,
        0.3278580904006958,
        1.5602000951766968,
        1.0
      ],
      "name": "LOD_A_WHEEL_mm_wheel.001_2"
    },
    {
      "mesh": 2,
      "name": "Object_8"
    },
    {
      "children": [
        10
      ],
      "matrix": [
        -1.0,
        -0.0,
        -0.0,
        -0.0,
        0.0,
        -1.685873969314855e-07,
        0.9999999999999858,
        0.0,
        0.0,
        -0.9999999999999858,
        -1.685873969314855e-07,
        0.0,
        -0.9433739185333252,
        0.3278580904006958,
        1.5602000951766968,
        1.0
      ],
      "name": "LOD_A_TYRE_mm_tyre.001_3"
    },
    {
      "mesh": 3,
      "name": "Object_10"
    },
    {
      "children": [
        12
      ],
      "matrix": [
        -1.0,
        -0.0,
        0.0,
        -0.0,
        0.0,
        -1.685873969314855e-07,
        0.9999999999999858,
        0.0,
        0.0,
        -0.9999999999999858,
        -1.685873969314855e-07,
        0.0,
        -0.9499053955078125,
        0.3267003297805786,
        -1.999400019645691,
        1.0
      ],
      "name": "LOD_A_TYRE_REAR_mm_tyre.001_4"
    },
    {
      "mesh": 4,
      "name": "Object_12"
    },
    {
      "children": [
        14
      ],
      "matrix": [
        1.0,
        0.0,
        0.0,
        0.0,
        0.0,
        -1.685873969314855e-07,
        0.9999999999999858,
        0.0,
        0.0,
        -0.9999999999999858,
        -1.685873969314855e-07,
        0.0,
        0.9499053955078125,
        0.3267003297805786,
        -1.999400019645691,
        1.0
      ],
      "name": "LOD_A_TYRE_REAR_mm_tyre_5"
    },
    {
      "mesh": 5,
      "name": "Object_14"
    },
    {
      "children": [
        16
      ],
      "matrix": [
        1.0,
        0.0,
        0.0,
        0.0,
        0.0,
        -1.685873969314855e-07,
        0.9999999999999858,
        0.0,
        0.0,
        -0.9999999999999858,
        -1.685873969314855e-07,
        0.0,
        0.0,
        0.0,
        0.0,
        1.0
      ],
      "name": "LOD_A_BODY_mm_ext_6"
    },
    {
      "mesh": 6,
      "name": "Object_16"
    },
    {
      "children": [
        18
      ],
      "matrix": [
        1.0,
        0.0,
        0.0,
        0.0,
        0.0,
        -1.685873969314855e-07,
        0.9999999999999858,
        0.0,
        0.0,
        -0.9999999999999858,
        -1.685873969314855e-07,
        0.0,
        0.0,
        0.0,
        0.0,
        1.0
      ],
      "name": "LOD_A_MIRROR_GLASS_RIGHT_mm_misc_7"
    },
    {
      "mesh": 7,
      "name": "Object_18"
    },
    {
      "children": [
        20
      ],
      "matrix": [
        1.0,
        0.0,
        0.0,
        0.0,
        0.0,
        -1.685873969314855e-07,
        0.9999999999999858,
        0.0,
        0.0,
        -0.9999999999999858,
        -1.685873969314855e-07,
        0.0,
        0.9433739185333252,
        0.3278580904006958,
        1.5602000951766968,
        1.0
      ],
      "name": "LOD_A_TYRE_mm_tyre_8"
    },
    {
      "mesh": 8,
      "name": "Object_20"
    },
    {
      "children": [
        22
      ],
      "matrix": [
        1.0,
        0.0,
        0.0,
        0.0,
        0.0,
        -1.685873969314855e-07,
        0.9999999999999858,
        0.0,
        0.0,
        -0.9999999999999858,
        -1.685873969314855e-07,
        0.0,
        0.0,
        0.0,
        0.0,
        1.0
      ],
      "name": "LOD_A_BRAKES_RIGHT_mm_lights_9"
    },
    {
      "mesh": 9,
      "name": "Object_22"
    },
    {
      "children": [
        24
      ],
      "matrix": [
        1.0,
        0.0,
        0.0,
        0.0,
        0.0,
        -1.685873969314855e-07,
        0.9999999999999858,
        0.0,
        0.0,
        -0.9999999999999858,
        -1.685873969314855e-07,
        0.0,
        0.0,
        0.0,
        0.0,
        1.0
      ],
      "name": "LOD_A_BRAKES_LEFT_mm_lights_10"
    },
    {
      "mesh": 10,
      "name": "Object_24"
    },
    {
      "children": [
        26
      ],
      "matrix": [
        1.0,
        0.0,
        0.0,
        0.0,
        0.0,
        -1.685873969314855e-07,
        0.9999999999999858,
        0.0,
        0.0,
        -0.9999999999999858,
        -1.685873969314855e-07,
        0.0,
        0.0,
        0.0,
        0.0,
        1.0
      ],
      "name": "LOD_A_BODY_mm_badges_11"
    },
    {
      "mesh": 11,
      "name": "Object_26"
    },
    {
      "children": [
        28
      ],
      "matrix": [
        1.0,
        0.0,
        0.0,
        0.0,
        0.0,
        -1.685873969314855e-07,
        0.9999999999999858,
        0.0,
        0.0,
        -0.9999999999999858,
        -1.685873969314855e-07,
        0.0,
        0.0,
        0.0,
        0.0,
        1.0
      ],
      "name": "LOD_A_STRUT_LOWER_FRONT_RIGHT_mm_badges_12"
    },
    {
      "mesh": 12,
      "name": "Object_28"
    },
    {
      "children": [
        30
      ],
      "matrix": [
        1.0,
        0.0,
        0.0,
        0.0,
        0.0,
        -1.685873969314855e-07,
        0.9999999999999858,
        0.0,
        0.0,
        -0.9999999999999858,
        -1.685873969314855e-07,
        0.0,
        0.0,
        0.0,
        0.0,
        1.0
      ],
      "name": "LOD_A_STRUT_UPPER_REAR_RIGHT_mm_misc_13"
    },
    {
      "mesh": 13,
      "name": "Object_30"
    },
    {
      "children": [
        32
      ],
      "matrix": [
        1.0,
        0.0,
        0.0,
        0.0,
        0.0,
        -1.685873969314855e-07,
        0.9999999999999858,
        0.0,
        0.0,
        -0.9999999999999858,
        -1.685873969314855e-07,
        0.0,
        0.0,
        0.0,
        0.0,
        1.0
      ],
      "name": "LOD_A_INTERIOR_mm_cab_14"
    },
    {
      "mesh": 14,
      "name": "Object_32"
    },
    {
      "children": [
        34
      ],
      "matrix": [
        1.0,
        0.0,
        0.0,
        0.0,
        0.0,
        -1.685873969314855e-07,
        0.9999999999999858,
        0.0,
        0.0,
        -0.9999999999999858,
        -1.685873969314855e-07,
        0.0,
        0.0,
        0.0,
        0.0,
        1.0
      ],
      "name": "LOD_A_STRUT_LOWER_FRONT_LEFT_mm_badges_15"
    },
    {
      "mesh": 15,
      "name": "Object_34"
    },
    {
      "children": [
        36
      ],
      "matrix": [
        1.0,
        0.0,
        0.0,
        0.0,
        0.0,
        -1.685873969314855e-07,
        0.9999999999999858,
        0.0,
        0.0,
        -0.9999999999999858,
        -1.685873969314855e-07,
        0.0,
        0.0,
        0.0,
        0.0,
        1.0
      ],
      "name": "LOD_A_REARBUMPER_mm_misc_16"
    },
    {
      "mesh": 16,
      "name": "Object_36"
    },
    {
      "children": [
        38
      ],
      "matrix": [
        1.0,
        0.0,
        0.0,
        0.0,
        0.0,
        -1.685873969314855e-07,
        0.9999999999999858,
        0.0,
        0.0,
        -0.9999999999999858,
        -1.685873969314855e-07,
        0.0,
        0.0,
        0.0,
        0.0,
        1.0
      ],
      "name": "LOD_A_REARBUMPER_mm_ext_17"
    },
    {
      "mesh": 17,
      "name": "Object_38"
    },
    {
      "children": [
        40
      ],
      "matrix": [
        1.0,
        0.0,
        0.0,
        0.0,
        0.0,
        -1.685873969314855e-07,
        0.9999999999999858,
        0.0,
        0.0,
        -0.9999999999999858,
        -1.685873969314855e-07,
        0.0,
        0.0,
        0.0,
        0.0,
        1.0
      ],
      "name": "LOD_A_STRUT_LOWER_REAR_RIGHT_mm_misc_18"
    },
    {
      "mesh": 18,
      "name": "Object_40"
    },
    {
      "children": [
        42
      ],
      "matrix": [
        1.0,
        0.0,
        0.0,
        0.0,
        0.0,
        -1.685873969314855e-07,
        0.9999999999999858,
        0.0,
        0.0,
        -0.9999999999999858,
        -1.685873969314855e-07,
        0.0,
        0.0,
        0.0,
        0.0,
        1.0
      ],
      "name": "LOD_A_CHASSIS_mm_chassis_19"
    },
    {
      "mesh": 19,
      "name": "Object_42"
    },
    {
      "children": [
        44
      ],
      "matrix": [
        1.0,
        0.0,
        0.0,
        0.0,
        0.0,
        -1.685873969314855e-07,
        0.9999999999999858,
        0.0,
        0.0,
        -0.9999999999999858,
        -1.685873969314855e-07,
        0.0,
        0.0,
        0.0,
        0.0,
        1.0
      ],
      "name": "LOD_A_FRONTBUMPER_mm_badges_20"
    },
    {
      "mesh": 20,
      "name": "Object_44"
    },
    {
      "children": [
        46
      ],
      "matrix": [
        1.0,
        0.0,
        0.0,
        0.0,
        0.0,
        -1.685873969314855e-07,
        0.9999999999999858,
        0.0,
        0.0,
        -0.9999999999999858,
        -1.685873969314855e-07,
        0.0,
        0.0,
        0.0,
        0.0,
        1.0
      ],
      "name": "LOD_A_BODY_mm_chassis_21"
    },
    {
      "mesh": 21,
      "name": "Object_46"
    },
    {
      "children": [
        48
      ],
      "matrix": [
        1.0,
        0.0,
        0.0,
        0.0,
        0.0,
        -1.685873969314855e-07,
        0.9999999999999858,
        0.0,
        0.0,
        -0.9999999999999858,
        -1.685873969314855e-07,
        0.0,
        0.0,
        0.0,
        0.0,
        1.0
      ],
      "name": "LOD_A_MIRROR_RIGHT_mm_ext_22"
    },
    {
      "mesh": 22,
      "name": "Object_48"
    },
    {
      "children": [
        50
      ],
      "matrix": [
        1.0,
        0.0,
        0.0,
        0.0,
        0.0,
        -1.685873969314855e-07,
        0.9999999999999858,
        0.0,
        0.0,
        -0.9999999999999858,
        -1.685873969314855e-07,
        0.0,
        0.0,
        0.0,
        0.0,
        1.0
      ],
      "name": "LOD_A_FRONTBUMPER_mm_ext_23"
    },
    {
      "mesh": 23,
      "name": "Object_50"
    },
    {
      "children": [
        52
      ],
      "matrix": [
        1.0,
        0.0,
        0.0,
        0.0,
        0.0,
        -1.685873969314855e-07,
        0.9999999999999858,
        0.0,
        0.0,
        -0.9999999999999858,
        -1.685873969314855e-07,
        0.0,
        0.0,
        0.0,
        0.0,
        1.0
      ],
      "name": "LOD_A_MIRROR_LEFT_mm_ext_24"
    },
    {
      "mesh": 24,
      "name": "Object_52"
    },
    {
      "children": [
        54
      ],
      "matrix": [
        1.0,
        0.0,
        0.0,
        0.0,
        0.0,
        -1.685873969314855e-07,
        0.9999999999999858,
        0.0,
        0.0,
        -0.9999999999999858,
        -1.685873969314855e-07,
        0.0,
        0.0,
        0.0,
        0.0,
        1.0
      ],
      "name": "LOD_A_STRUT_LOWER_FRONT_RIGHT_mm_misc_25"
    },
    {
      "mesh": 25,
      "name": "Object_54"
    },
    {
      "children": [
        56
      ],
      "matrix": [
        1.0,
        0.0,
        0.0,
        0.0,
        0.0,
        -1.685873969314855e-07,
        0.9999999999999858,
        0.0,
        0.0,
        -0.9999999999999858,
        -1.685873969314855e-07,
        0.0,
        0.0,
        0.0,
        0.0,
        1.0
      ],
      "name": "LOD_A_STRUT_UPPER_FRONT_LEFT_mm_ext_26"
    },
    {
      "mesh": 26,
      "name": "Object_56"
    },
    {
      "children": [
        58
      ],
      "matrix": [
        1.0,
        0.0,
        0.0,
        0.0,
        0.0,
        -1.685873969314855e-07,
        0.9999999999999858,
        0.0,
        0.0,
        -0.9999999999999858,
        -1.685873969314855e-07,
        0.0,
        0.0,
        0.0,
        0.0,
        1.0
      ],
      "name": "LOD_A_STRUT_UPPER_REAR_RIGHT_mm_badges_27"
    },
    {
      "mesh": 27,
      "name": "Object_58"
    },
    {
      "children": [
        60
      ],
      "matrix": [
        1.0,
        0.0,
        0.0,
        0.0,
        0.0,
        -1.685873969314855e-07,
        0.9999999999999858,
        0.0,
        0.0,
        -0.9999999999999858,
        -1.685873969314855e-07,
        0.0,
        0.0,
        0.0,
        0.0,
        1.0
      ],
      "name": "LOD_A_FRONTBUMPER_mm_misc_28"
    },
    {
      "mesh": 28,
      "name": "Object_60"
    },
    {
      "children": [
        62
      ],
      "matrix": [
        1.0,
        0.0,
        0.0,
        0.0,
        0.0,
        -1.685873969314855e-07,
        0.9999999999999858,
        0.0,
        0.0,
        -0.9999999999999858,
        -1.685873969314855e-07,
        0.0,
        0.0,
        0.0,
        0.0,
        1.0
      ],
      "name": "LOD_A_STRUT_UPPER_REAR_LEFT_mm_badges_29"
    },
    {
      "mesh": 29,
      "name": "Object_62"
    },
    {
      "children": [
        64
      ],
      "matrix": [
        1.0,
        0.0,
        0.0,
        0.0,
        0.0,
        -1.685873969314855e-07,
        0.9999999999999858,
        0.0,
        0.0,
        -0.9999999999999858,
        -1.685873969314855e-07,
        0.0,
        0.0,
        0.0,
        0.0,
        1.0
      ],
      "name": "LOD_A_STRUT_UPPER_FRONT_RIGHT_mm_ext_30"
    },
    {
      "mesh": 30,
      "name": "Object_64"
    },
    {
      "children": [
        66
      ],
      "matrix": [
        1.0,
        0.0,
        0.0,
        0.0,
        0.0,
        -1.685873969314855e-07,
        0.9999999999999858,
        0.0,
        0.0,
        -0.9999999999999858,
        -1.685873969314855e-07,
        0.0,
        0.0,
        0.0,
        0.0,
        1.0
      ],
      "name": "LOD_A_REARBUMPER_mm_badges_31"
    },
    {
      "mesh": 31,
      "name": "Object_66"
    },
    {
      "children": [
        68
      ],
      "matrix": [
        1.0,
        0.0,
        0.0,
        0.0,
        0.0,
        -1.685873969314855e-07,
        0.9999999999999858,
        0.0,
        0.0,
        -0.9999999999999858,
        -1.685873969314855e-07,
        0.0,
        0.0,
        0.0,
        0.0,
        1.0
      ],
      "name": "LOD_A_STRUT_LOWER_FRONT_LEFT_mm_ext_32"
    },
    {
      "mesh": 32,
      "name": "Object_68"
    },
    {
      "children": [
        70
      ],
      "matrix": [
        1.0,
        0.0,
        0.0,
        0.0,
        0.0,
        -1.685873969314855e-07,
        0.9999999999999858,
        0.0,
        0.0,
        -0.9999999999999858,
        -1.685873969314855e-07,
        0.0,
        0.0,
        0.0,
        0.0,
        1.0
      ],
      "name": "LOD_A_CHASSIS_mm_misc_33"
    },
    {
      "mesh": 33,
      "name": "Object_70"
    },
    {
      "children": [
        72
      ],
      "matrix": [
        1.0,
        0.0,
        0.0,
        0.0,
        0.0,
        -1.685873969314855e-07,
        0.9999999999999858,
        0.0,
        0.0,
        -0.9999999999999858,
        -1.685873969314855e-07,
        0.0,
        0.0,
        0.0,
        0.0,
        1.0
      ],
      "name": "LOD_A_EXHAUST_mm_ext_34"
    },
    {
      "mesh": 34,
      "name": "Object_72"
    },
    {
      "children": [
        74
      ],
      "matrix": [
        1.0,
        0.0,
        0.0,
        0.0,
        0.0,
        -1.685873969314855e-07,
        0.9999999999999858,
        0.0,
        0.0,
        -0.9999999999999858,
        -1.685873969314855e-07,
        0.0,
        0.9433739185333252,
        0.3278580904006958,
        1.5602000951766968,
        1.0
      ],
      "name": "LOD_A_WHEEL_mm_wheel_35"
    },
    {
      "mesh": 35,
      "name": "Object_74"
    },
    {
      "children": [
        76
      ],
      "matrix": [
        1.0,
        0.0,
        0.0,
        0.0,
        0.0,
        -1.685873969314855e-07,
        0.9999999999999858,
        0.0,
        0.0,
        -0.9999999999999858,
        -1.685873969314855e-07,
        0.0,
        0.0,
        0.0,
        0.0,
        1.0
      ],
      "name": "LOD_A_STRUT_LOWER_FRONT_RIGHT_mm_ext_36"
    },
    {
      "mesh": 36,
      "name": "Object_76"
    },
    {
      "children": [
        78
      ],
      "matrix": [
        1.0,
        0.0,
        0.0,
        0.0,
        0.0,
        -1.685873969314855e-07,
        0.9999999999999858,
        0.0,
        0.0,
        -0.9999999999999858,
        -1.685873969314855e-07,
        0.0,
        0.0,
        0.0,
        0.0,
        1.0
      ],
      "name": "LOD_A_MIRROR_LEFT_mm_misc_37"
    },
    {
      "mesh": 37,
      "name": "Object_78"
    },
    {
      "children": [
        80
      ],
      "matrix": [
        1.0,
        0.0,
        0.0,
        0.0,
        0.0,
        -1.685873969314855e-07,
        0.9999999999999858,
        0.0,
        0.0,
        -0.9999999999999858,
        -1.685873969314855e-07,
        0.0,
        0.0,
        0.0,
        0.0,
        1.0
      ],
      "name": "LOD_A_MIRROR_RIGHT_mm_misc_38"
    },
    {
      "mesh": 38,
      "name": "Object_80"
    },
    {
      "children": [
        82
      ],
      "matrix": [
        1.0,
        0.0,
        0.0,
        0.0,
        0.0,
        -1.685873969314855e-07,
        0.9999999999999858,
        0.0,
        0.0,
        -0.9999999999999858,
        -1.685873969314855e-07,
        0.0,
        0.9732000827789307,
        0.3278580904006958,
        1.5602000951766968,
        1.0
      ],
      "name": "LOD_A_WHEELGUARD_FRONT_LEFT_mm_misc_39"
    },
    {
      "mesh": 39,
      "name": "Object_82"
    },
    {
      "children": [
        84
      ],
      "matrix": [
        1.0,
        0.0,
        0.0,
        0.0,
        0.0,
        -1.685873969314855e-07,
        0.9999999999999858,
        0.0,
        0.0,
        -0.9999999999999858,
        -1.685873969314855e-07,
        0.0,
        0.0,
        0.0,
        0.0,
        1.0
      ],
      "name": "LOD_A_CHASSIS_mm_lights_40"
    },
    {
      "mesh": 40,
      "name": "Object_84"
    },
    {
      "children": [
        86
      ],
      "matrix": [
        1.0,
        0.0,
        0.0,
        0.0,
        0.0,
        -1.685873969314855e-07,
        0.9999999999999858,
        0.0,
        0.0,
        -0.9999999999999858,
        -1.685873969314855e-07,
        0.0,
        0.0,
        0.0,
        0.0,
        1.0
      ],
      "name": "LOD_A_MIRROR_GLASS_LEFT_mm_misc_41"
    },
    {
      "mesh": 41,
      "name": "Object_86"
    },
    {
      "children": [
        88
      ],
      "matrix": [
        1.0,
        0.0,
        0.0,
        0.0,
        0.0,
        -1.685873969314855e-07,
        0.9999999999999858,
        0.0,
        0.0,
        -0.9999999999999858,
        -1.685873969314855e-07,
        0.0,
        0.0,
        0.0,
        0.0,
        1.0
      ],
      "name": "LOD_A_REARBUMPER_mm_lights_42"
    },
    {
      "mesh": 42,
      "name": "Object_88"
    },
    {
      "children": [
        90
      ],
      "matrix": [
        1.0,
        0.0,
        0.0,
        0.0,
        0.0,
        -1.685873969314855e-07,
        0.9999999999999858,
        0.0,
        0.0,
        -0.9999999999999858,
        -1.685873969314855e-07,
        0.0,
        0.0,
        0.0,
        0.0,
        1.0
      ],
      "name": "LOD_A_STRUT_LOWER_REAR_LEFT_mm_misc_43"
    },
    {
      "mesh": 43,
      "name": "Object_90"
    },
    {
      "children": [
        92
      ],
      "matrix": [
        1.0,
        0.0,
        0.0,
        0.0,
        0.0,
        -1.685873969314855e-07,
        0.9999999999999858,
        0.0,
        0.0,
        -0.9999999999999858,
        -1.685873969314855e-07,
        0.0,
        0.0,
        0.0,
        0.0,
        1.0
      ],
      "name": "LOD_A_STRUT_LOWER_FRONT_LEFT_mm_misc_44"
    },
    {
      "mesh": 44,
      "name": "Object_92"
    },
    {
      "children": [
        94
      ],
      "matrix": [
        1.0,
        0.0,
        0.0,
        0.0,
        0.0,
        -1.685873969314855e-07,
        0.9999999999999858,
        0.0,
        0.0,
        -0.9999999999999858,
        -1.685873969314855e-07,
        0.0,
        0.0,
        0.0,
        0.0,
        1.0
      ],
      "name": "LOD_A_STEERING_ARM_LEFT_mm_badges_45"
    },
    {
      "mesh": 45,
      "name": "Object_94"
    },
    {
      "children": [
        96
      ],
      "matrix": [
        1.0,
        0.0,
        0.0,
        0.0,
        0.0,
        -1.685873969314855e-07,
        0.9999999999999858,
        0.0,
        0.0,
        -0.9999999999999858,
        -1.685873969314855e-07,
        0.0,
        0.0,
        0.0,
        0.0,
        1.0
      ],
      "name": "LOD_A_BODY_mm_misc_46"
    },
    {
      "mesh": 46,
      "name": "Object_96"
    },
    {
      "children": [
        98
      ],
      "matrix": [
        1.0,
        0.0,
        0.0,
        0.0,
        0.0,
        -1.685873969314855e-07,
        0.9999999999999858,
        0.0,
        0.0,
        -0.9999999999999858,
        -1.685873969314855e-07,
        0.0,
        0.9499053955078125,
        0.3267003297805786,
        -1.999400019645691,
        1.0
      ],
      "name": "LOD_A_WHEEL_REAR_mm_wheel_47"
    },
    {
      "mesh": 47,
      "name": "Object_98"
    },
    {
      "children": [
        100
      ],
      "matrix": [
        1.0,
        0.0,
        0.0,
        0.0,
        0.0,
        -1.685873969314855e-07,
        0.9999999999999858,
        0.0,
        0.0,
        -0.9999999999999858,
        -1.685873969314855e-07,
        0.0,
        0.0,
        0.0,
        0.0,
        1.0
      ],
      "name": "LOD_A_STRUT_UPPER_REAR_LEFT_mm_misc_48"
    },
    {
      "mesh": 48,
      "name": "Object_100"
    },
    {
      "children": [
        102
      ],
      "matrix": [
        1.0,
        0.0,
        0.0,
        0.0,
        0.0,
        -1.685873969314855e-07,
        0.9999999999999858,
        0.0,
        0.0,
        -0.9999999999999858,
        -1.685873969314855e-07,
        0.0,
        0.0,
        0.5680999159812927,
        0.4636838436126709,
        1.0
      ],
      "name": "LOD_A_STEERING_WHEEL_mm_cab_49"
    },
    {
      "mesh": 49,
      "name": "Object_102"
    }
  ],
  "samplers": [
    {
      "magFilter": 9729,
      "minFilter": 9987,
      "wrapS": 10497,
      "wrapT": 10497
    }
  ],
  "scene": 0,
  "scenes": [
    {
      "name": "Sketchfab_Scene",
      "nodes": [
        0
      ]
    }
  ],
  "textures": [
    {
      "sampler": 0,
      "source": 0
    },
    {
      "sampler": 0,
      "source": 1
    },
    {
      "sampler": 0,
      "source": 2
    },
    {
      "sampler": 0,
      "source": 3
    },
    {
      "sampler": 0,
      "source": 4
    },
    {
      "sampler": 0,
      "source": 5
    },
    {
      "sampler": 0,
      "source": 6
    },
    {
      "sampler": 0,
      "source": 7
    }
  ]
}
